<mxfile host="65bd71144e">
    <diagram id="rKBKfmc1hegaI4ESPBEd" name="Page-1">
        <mxGraphModel dx="1498" dy="697" grid="1" gridSize="10" guides="1" tooltips="1" connect="1" arrows="1" fold="1" page="1" pageScale="1" pageWidth="850" pageHeight="1100" math="0" shadow="0">
            <root>
                <mxCell id="0"/>
                <mxCell id="1" parent="0"/>
                <mxCell id="2" value="" style="rounded=1;whiteSpace=wrap;html=1;fillColor=#FFFFFF;" vertex="1" parent="1">
                    <mxGeometry x="110" y="80" width="490" height="320" as="geometry"/>
                </mxCell>
                <mxCell id="3" value="" style="verticalLabelPosition=bottom;html=1;verticalAlign=top;align=center;strokeColor=none;fillColor=#00BEF2;shape=mxgraph.azure.user;" vertex="1" parent="1">
                    <mxGeometry x="160" y="249" width="47.5" height="50" as="geometry"/>
                </mxCell>
                <mxCell id="4" value="" style="rounded=1;whiteSpace=wrap;html=1;fillColor=#dae8fc;strokeColor=#6c8ebf;" vertex="1" parent="1">
                    <mxGeometry x="270" y="150" width="270" height="210" as="geometry"/>
                </mxCell>
                <mxCell id="5" value="" style="sketch=0;aspect=fixed;html=1;points=[];align=center;image;fontSize=12;image=img/lib/mscae/Docker.svg;fillColor=#FFFFFF;" vertex="1" parent="1">
                    <mxGeometry x="260" y="140" width="50" height="41" as="geometry"/>
                </mxCell>
                <mxCell id="8" value="" style="rounded=1;whiteSpace=wrap;html=1;fontColor=#000000;fillColor=#FFFFFF;dashed=1;dashPattern=8 8;strokeColor=#000000;" vertex="1" parent="1">
                    <mxGeometry x="332.5" y="219.5" width="145" height="115" as="geometry"/>
                </mxCell>
                <mxCell id="6" value="" style="shape=image;verticalLabelPosition=bottom;verticalAlign=top;imageAspect=0;image=data:image/png,iVBORw0KGgoAAAANSUhEUgAAA8AAAAH4CAYAAACFYIRyAACAAElEQVR42uzdd3xc5YEu/mfOmd6rRnXUZVnu3eCGG5hgagg1BNJ3l5DLtuzuL9nN3iSbzabsDZubBG4Seg8Gg00MGGMbg23cbblg9d77FE095/eHc04kY7DkKsnPNx99TGzNzJn3tPc5b9PIsuwCMBWAACIiIiIiIqKJRwJwVAtgDoCXAOhZJkRERERERDQBxQHcqQUgArAwABMREREREdEEpQMgav/8f+Q//6lhuRAREREREdEEIiuZl+N+iYiIiIiI6IrAAExEREREREQMwEREREREREQMwEREREREREQMwEREREREREQMwEREREREREQMwEREREREREQMwEREREREREQMwEREREREREQMwERERERERMQATERERERERMQATERERERERMQATERERERERMQATERERERERMQATERERERERMQATERERERERMQATERERERERMQATERERERERMQATERERERERAzARERERERERAzARERERERERAzARERERERERAzARERERERERAzARERERERERAzARERERERERAzARERERERERAzARERERERERAzARERERERExABMRERERERExABMRERERERExABMRERERERExABMRERERERExABMRERERERExABMRERERERExABMRERERERExABMRERERERExABMREREREREDMBEREREREREDMBEREREREREDMBEREREREREDMBEREREREREDMBEREREREREDMBEREREREREDMBEREREREREDMBEREREREREDMBERERERETEAExERERERETEAExERERERETEAExERERERETEAExERERERETEAExERERERETEAExERERERETEAExERERERETEAExERERERETEAExEREREREQMwEREREREREQMwEREREREREQMwEREREREREQMwEREREREREQMwEREREREREQMwEREREREREQMwEREREREREQMwEREREREREQMwERERERERMQATERERERERMQATERERERERMQATERERERERMQATERERERERMQATERERERERMQATERERERERMQATERERERERMQATERERERERMQATERERERERAzARERERERERAzARERERERERAzARERERERERAzARERERERERAzARERERERERAzARERERERERAzARERERERERAzARERERERERAzARERERERExABMRERERERExABMRERERERExABMRERERERExABMRERERERExABMRERERERExABMRERERERExABMRERERERExABMREREREREDMAsAiIiIiIiImIAJiIiIiIiImIAJiIiIiIiImIAJiIiIiIiImIAJiIiIiIiImIAJiIiIiIiImIAJiIiIiIiImIAJiIiIiIiImIAJiIiIiIioiublkVARDS+ybLMQiA6TxqNhoVARMQATEREY5kkSZAkiSGY6DwIggBRFFkQREQMwERENFYlEgk0NDSgqqoKPT09DMFEoyZDp9OjuLgYxcXFMJvNbAkmImIAJiKiMVVll2XIsoy2tjZs2rQJ77//Prq6uiBJEgtnDO4rgN1rx/L+MRgMmDt3Lm677TbMmDEDWq2W+4uIiAGYiIjGklQqhQMHDmDz5s3o6+sDAAbgMUgQBHV/0dij0WgQj8exf/9++Hw+5OTkwOfzqf9GREQMwEREdBnJkNVA1draio6ODuh0OhbMGAxWLpcLHo8Hsiyjq6tLfVBBY+h8+nNving8jra2NgSDQXi9XoZfIiIGYCIiGhPBChrIOFVpT6VSHPc7RkOVxWJBdnY2vF6v2s02HA4jHo8zXI3RfcbJ5IiIrgxcB5iIaDwG4T+HKFbYx95+kSQJer0eFosFoihCFEWYzWbodDruLyIiIgZgIiIaDaXbJo3RG6sgIB6PIxKJIJlMIplMIhKJIJFIsPWXiIjoMmMXaCIiogtElmVoNBpEIhHU19djYGAAsiyju7ubAZiIiIgBmIiILiUGsEunr68Pvb29armz7C8d9pAgIiIGYCIiYjBg2RMRETEAExHRBL/Ya7XQ6/VshaTPSOgAJsjhkUqlkEgkuP4yERExABMRXWk0Gg0CgQDKysqg1+vVcapEEy7D//nYDofDOHr0GJqaGnmsExERAzAR0ZUSfAVBgEajQWlpKW6//XZYrVbIkjxhWvqITg/AgiCgu7sb0WgMDQ316vJT7IJOREQMwEREV0AI1mg0MJvN8Pl8sNlsDAI04Y95ADCZjCwMIiJiACYiuhKdHnrZLZQm+vHOBz1ERMQATER0BVNagxl+6Uo41omIiM5EYBEQEV0h2CA2vDjO0kp4+r+zRZGIiGj8YwswERFdkTQaDWRZhiRJwwLvsJZyzfDfV36PLYxEREQMwERERGOGElSVlltJkpBKpRCNRhEMBhGJRBCJRBCPxyHLMlKpFFKpFERRVH90Oh1MJhMcDgcsFgt0Oh20Wu2wQExEREQMwERERJc1/CqhN5FIIBKJoK2tDV1dXejs7ERVVRUaGhrQ2dmJeDyu/q4kSRBFEQCQSCRgNpuRkZGB0tJSBAIBeL1e+Hw+eDwemM1maLVaCAJHE42X44GIiIgBmIiIJlzQSaVSCIVCaGtrw8mTJ1FdXY2DBw+ipqYG8Xgc4XAY0WgUyWQSgiCoPxqNRg3CiUQCsixDr9dj+/btMBgMsFgsKC0tRWlpKSZNmoTi4mL4fD5YLJZhQZitw0RERAzAREREFzX8yrKMwcFBNDU1Yd++fdi7dy92796Njo4OxGIxDA4Owmg0qmHW7/fD7XbDarWqLbqRSAShUAjBYBB9fX3o6upCf38/BgcHkUwmUVVVhbfeegvFxcWYN28e5s6di1mzZsHv98NgMKjdrhmCx46hXeGJiIgBmIiIaFyTJAnxeBytra04fPgw3n//fWzfvh3Nzc1IJpOwWCzIyMhAIBBAYWEhsrKy4HA44HK5YLPZYLFYYDKZIIoiotEoQqEQIpEIwuEw+vv70dPTg+bmZlRUVKC5uRl9fX04dOgQDh06hG3btmH58uVYvHgxZsyYAbfbDZ1OpwYvIiIiYgAmIiI6L0PH+fb09ODgwYPYtGkT3n33XTQ1NaktvFarFYsXL8aCBQuQlZUFn88Hl8ulBt7T10dWWpJP707d09ODtrY2NDU1Yf/+/fjoo48QDAZRUVGB48ePY8uWLVi5ciVWrFiBWbNmweFwqNvKIDw2jhUiIiIGYCIiGrehJpVKobW1FVu3bsW6deuwd+9ehMNh5OTkoLS0FAsXLkRpaSmKi4sRCARgNBrVMDrSUKrT6WAwGODxeFBQUIBIJILp06djyZIlOHbsGD744APU1NTg2LFjaGxsxMcff4y77roLixYtgtfrVWeNJiIiIgZgIiKicwq/g4ODqKqqwubNm7Fu3TrU19fDZDKhtLQUS5cuxbJly9RJqvR6/aiD71DKa7RaLex2O8rKylBQUIDp06dj+ozp+GDHB9i1axfq6urw4Ycform5GY2Njbj++uuRl5enjg0mIiIiBmAiIqJRhd9oNIrdu3fj2Wefxb59+9DZ2Qm3241Zs2bhxhtvxIIFC5CZmQmdTjese/OFotFoYDKZkJuXC7/fj5LiEkydOhXPPfccDh06hMrKSvzhD39AS0sL7rzzTkyZMgUmk4k7j4iIiAGYiIho5OE3FArh6NGjeOGFF7BlyxYAQEFBAa699lpcf/31KC4uhsPhUJcluhgtr8qswoJGgNlsRmFhITweD7xeL95991289dZb6OnpwaZNmzA4OIgvfvGLmDlzJoxGI3ciERERAzAREdHZw284HMbevXvx9NNPY8eOHdBqtZgyZQo+//nPY/ny5cjOzr6owff0EKwQRREejwfLly9HcXEx8vPz8eyzz6KmpgZ/+tOfkEqloNPpMG3aNM4QTURExABMRET02RKJBE6ePIlXX30VH374ISRJQkFBAW655RasWrUK6enpEEXxsmyb0iJsMBiQl5eH66+/HuFwGC+++CI6OjqwY8cOZGdnw263Izc3Vw3BRERExABMRESkkmUZyWQS1dXVeOaZZ/D6668DACZNmoR77rkH119/PdLS0i5b+B0agoFTE2Xl5ubijjvugNFoxHPPPYeWlhY89dRTiEajuP/++5GXl6cuwURERESXjsAiICKisa61tRWvvvoq3nnnHciyjIyMDNx333245ZZb4Pf7L3v4PZ1Wq0UgEMDtt9+Or3zlK8jJyUEkEsFbb72FDRs2oKurC5IkcX3aS4QPGoiIiAGYiIjGPGW5o3379uHdd99FOBxGIBDAvffei9WrV8PhcIzZcCOKIvx+P1avvhZr166FXq9HVVUV3njjDRw6dAixWIzBjIiIiAGYiIjoVPhNJBJqaDx27BiMRqM627PS8juWQ6RWq0VOTjZuuOEGLF++HHq9HidPnsQ777yDxsZGtRVYlmVIkoRUKoVkMolEIoF4PI54PI5EIoFUKgVJkob9/tByorMfS0RERADHABMR0RgNLLIso7OzE++99x62b98OURQxbdo0XH/99cjNzR1z3Z4/jV6vR0lJCW688UbU19ejoqICW7duxdSpU+Hz+WAymRCLxRAKhRAOhxGJRBCJRNQWYqPRCIvFArPZDIvFApPJBL1eD71eD0EQ1Am4AHb1JSIiYgAmIqJxKR6P49ChQ3j77beRTCaRn5+PO+64A5MnT4bBYBhX38VkMmHevHlYu3YtnnnmGTQ1NeHNN9+EJEkQRRFtbW3o6+tDKBTC4OAgIpEIotEoBEGAyWSC2WxWA7DFYkFGRgYKCwuRkZEBt9sNq9UKnU53yZaAGm+GPiQgIiIGYCIiojFDaf1tb2/H22+/jf3798Nut2P58uW46qqrYLPZIMvyuAt5aWlpWL58OWpra/HKK6/gww8/REVFBRKJBNrb25FIJNTvlUqlkEqloNVqodPpkEwmhwXbzMxM5OXlwel0orS0FAsXLkRBQQHS09NhsVig1WoZhImIiBiAiYhoPEgmk6itrUV5eTkikQimTp2Kq6++Gl6vd1x+H41Go84MfdVVV2HDhg3o7OxEMBhUJ8tSukPrdDrE43FEo1G1u7MkSUgmkwiHw+jp6UF7ezsaGxuh1Wpx6NAh7Nq1C5MnT8by5ctRVlaG7OxsmEwmBmAiIiIGYCIiGquUbqq9vb3YvXs3GhsbIQgC5s+fj5kzZ8JoNI7bUKfRaGC32zF79mzcfPPNOHnyJGw2G8xmMwoLC1FYWAiv1wuTyQRBENTxvcrkWIODg2hra0N9fT2qq6sxMDCA9vZ21NfXo7y8HOXl5Xjvvfcwd+5crF69GnPmzEF2djbMZrPaNfpKP66IiIgYgImIaExJpVJobm7Gnj170NbWhilTpmDx4sXwer3jvkVTFEXk5OTgzjvvRFdXF7KysuBwONRJrvR6vTqztTJuVQlvqVQKsVgMg5FBhMIh9PT04MiRIzh48CC6u7tx/PhxtLa2Yv369di3bx+WLl2KNWvWYN68efB4PNDpdFdsizDHABMREQMwERGNKUpACYVCOHbsGDo6OqDRaFBQUIDS0lLo9foJ8T2NRiNmzJiBVCoFo9H4qUs5ybIMjaCBBqf+TavVwmAwwG63I01OQyAQQFFREVasWIGmpiZ88MEH2LVrF6qrq9He3o7XX38dVVVVuOWWW7B06VIUFRXBYDBckSGY4ZeIiBiAiYhoTOrr68O+fftQW1uL9PR0lJWVwe12/yUUjvMAp9FoYDKZzrp00Wd9T41GA51OB6fTCYfDgczMTBQXF+Oqq67CRx99hO3bt6OyshJHjx5FS0sLTpw4gXvuuQczZszg2GAiImIAJiIiGgtSqRT6+/vR09ODcDiMefPm4aqrroLFYmHhfEYY1uv1SEtLg8PhQHFxMaZOnYotW7bgzTffRGtrK1577TX09fXhK1/5CubMmQObzcYQTEREDMBERESX0+DgIE6ePImmpiZotVqUlJSgsLBwQo5fvRDf5/T3MBqNyMzMhMvlQm5uLjIyMrBt2zZUVlbivffeQzQaxV133YWlS5fC7XZDFEUedERExABMRER0OUSjUdTU1KCyshJ6vR4FBQWw2+3jMvyerYvzxQzUZrMZpaWlcLvdmDRpEl5++WW89dZb2LFjB/r7+yHLMlasWKF2LSciImIAJiIiusSBMZFIIJlMIhaLwe/3Iz8/f1yOWR066dKlDsIKZX3hRYsWIR6Po7m5GZWVlTh27BheeukluFwuLFq06IqdGIuIiBiAiYiILltglCQJA/0DagtlZmYmsrOzYTAYxl3wlWUZ8XgcoVAIWq0WFotl2PJGl4JGo4EoinC5XFi1ahV0Oh2effZZ7N+/H++//z5EUYTVasX06dPH9frKREREDMBERDTuAnAymURnVyfa2tqQSqXgdDphsVggCMK4Cb6SJCGZTKK7uxv19fXo6OiAXq9HIBBAVlbWZQvCdrsdS5YsgSzL6Ovrw6FDh7Bt2zZkZmbCZDJh8uTJ0Gq1w7bpTEsHjdeQzHWAiYiIAZiIiMZUeBw6A7QkSfB6vdDpdOMm+MZiMfT09KC5uRn19fXo6elBKpWCRqNBS0sLMjMzkZ+fj7S0NNhsNmi12ksSKpX3dzqdWLZsGSKRCP7P//k/aGhowCuvvAK73Y5vfOMbSE9PH9X2XK6u3URERAzAREQ0LoPv0JZQWZYRi8XQ398PSZLgdrvHbAAe2pqYSCTQ19eH+vp6VFdXo6+vD7IsIyMjA9nZ2YhGo2hoaEBtbS3a2tqQmZmJoqIipKWlDVve6WIGSaWcnU4nVqxYgY6ODjz//PM4evQo3n33XSxYsABOpxN6vR7JZBLJZBKJRAKyLEOWZQgaAaJWhF6vhyiKEARhWMv8WF+fma2/RETEAExERJc2hECGBn8Ju0p34UgkgmAwiK6uLlRXV6O7uxuSJMFgMKjL9IyVgHV68A2FQmhpaUF1dTU6OzuRSCTgdDpRWFiIQCAAu92OVCqF7OxsVFVVobGxEXV1dejq6kIgEEBBQQFcLheMRuMlC8I+nw9r1qxBbW0tKisr0djYiE2bNsFkMsFutyMYDKK3txfBYBDJZBKSJEEURVgsFrhcLlgsFvV3bTYbrFYrdDqd2rV7rIdhIiJiACYiIroUCRgpKYVEIoHe3l40NDSgsbERTU1NqKqqQn19PVpaWhAKhaDX6z8xJnUsBF9lpupQKKS26nZ1dUGWZbjdbhQXFyMzMxMOh2PY2sUWiwU+nw/FxcWoq6tDQ0MDjh8/jrq6egQCOcjNzYXP54PRaFRbVi/WdxdFEfn5+bj11ltx4sQJ7N+/H+vWrcPBgwdhtVoRj8cxODiIWCymBmCtVgu9Xg+z2QytVgutVov09HSUlJQgNzcXfr8fhYWF8Pl86r672GGeiIiIAZiIiMZW5h0SHAcHB9Ha2orq6mocOnQIu3btwscff4xUKoVgMIhoNAqDwQCLxQK/369OGDVWvoMyRrmtrQ01NTVobGwEALjdbhQWFiIvLw9Op/OM4U+j0agtp2lpaQgEAqiurkZjYyPKy8tRX1+PkpISZGdnw+v1Qq/XX9QAqdfrMW3aNNx4443o6upCS0sLTpw4AUEQYDQa1YcPqVQKkiSpXdFTqVMPMCKRCARBUIN+eno6li5diunTp6OkpAR5eXmwWq1jYv8RERExABMR0SUJjsq43o6ODhwpP4KdH+7ERx99hLq6OkQiEQBQu9ZmZ2cjLS0NPp8PPp8PM2bMuKxr1A4N76FQCB0dHaitrUVDQwPi8TicTidycnIQCATg9XpH1HqrBMzs7Gw4nU6kp6ejoaEB7e3tOHz4MJqbm1FQUIDMzEy43W41TF/oMKzMDH311Vfj6NGj2LNnD3w+H7xeL3w+H6xWK7RaLVKp1KnKglaLZDKJeDyOvr4+tLS2oKmxCcFgEOFwGCdOnEBDQwPcbjfmzp2LFStWYMaMGcjJyYHZbGZLMBERMQATEdHEDr+JRAIdHR3qkjtvv/M22traABnweDxIS0tDaWkpSktL4Xa7kZWVBa/XC7fbrY4vvRxrAA+d2TkUCqGzsxN1dXVobGxELBaD3W5HcXExCgoK4Ha7YTAYRtVtWaPRQKvVwul0wmq1Ijs7G83NzaitrUVHRwf27t0Lr9eLgoICZGVlwW63qy2wFzJIarValJSU4L777sOiRYvg8XjgdrvhdrvV1ndlXK8yXjsejyMYDKKjowPNzc3o7u5GbW0tysvL0d3djdbWVqxbtw7vvvsuFi9ejOuvvx7z5s1DRkbGsAcEREREDMBERDRhwm84HEZlZSW2b9+OjRs34tChQ9BqtbBarPB4PLj22msxefJk5OXlIT8/Hw6HA3q9Xp1d+GKPgz1b8I1Go+jo6EBdXR2amk61dNrtduTl5SEvLw8+nw8mk+mct1P5fa1WC4fDoXb7bmxsVNcP7unpQWtrK7Kzs5Gdna12Kb5QawhrNBpYrVbMnz8fs2fPHja785k+Y2iLeGlpKRKJBMLhMJqamlBTU4Pq6mps3rwZdfV1iA5GsX79epw4cQIrV67Etddei1mzZsFutzMEExERAzAREU0MqVQKfX192LlzJ1566SXs378f3d3dcLlcKCkpwbJlyzB16lRMnjwZaWlp6kzPl7ubMwBIKQnR2KngW19fj6amJgwMDMBqtWLKlCnIDQTgS0u7oBNVKbMma7VaeDweOBwOtUVYmSyrubkFTU1NCAQCyM7OHjY2+kJ8vl6vV8ccjyS0A6cm0lImxfJ4PJgyZQq6u7tx1VVXoaqqClu3bsXevXtRV1eHxx9/HAcOHsB9X7wPS5YsQUZGxrAJwoiIiBiAiYhoXIbftrY27N69G08//TT27NmDaDSKjIwMLFu2DDfccANmzJihjpe93AFIGaMMAMlkUg2+jY2N6OzshMlkQnFxMQKBADIzM2E2my9Ky/TQdZCHBuG0tDQ0NDSgvr4eNTU16OjoQHt7OwKBADIyMmAymS7YskPn8h7Ka5SW44yMDPh8PpSVlaGgoAAFBQXYvn07jh8/jn179yESjqC1tRU333wzCgoKLuuDDyIiYgAmIiI6r/Db2tqKN998E6+//jqOHz8Og8GAmTNn4rrrrsM111yDwsJCWCyWMbW0USKRQF9fHxobG9UljbRaLQoKCpCfn4/MzExYLJaLNhnVmYIwcGqW5vT0dDidTmRlZamtwRUVFWhra0N2djYKCgqGzRh9Ptt2Lq87fZZrJcC73W4sWLAAubm5KC0txauvvop9+/bh2LFj6OvrQzQaxRe+8AUUFhZesqWulO0jIiJiACYiovMKkZIkoa6uDhs2bMAzzzyDpqYmuFwu3HDDDbj22msxe/ZsuN3uyzKu90wkSUIsFkNvb6/a4tvX1wdRFFFQUIDc3Fykp6cPW8bnUm6z8lmCIMBsNsNoNMLj8SA3NxcNDQ1oaGjAxx9/jObmZmRmZiIvL09tVb+cyw4p263RaGA0GpGbmwu3243cvFy8/fbbeH3966ivr8ejjz6KlpYWfP3rX8fUqVPZHZqIiBiAiYho/ATgjo4ObNq0CS+88ALa2trg9Xpx1VVX4a677sLkyZPHVKtvKpXCwMAAampqUFdXh97eXkiShPT0dBQWFiI9PR12u/2StPiOJliaTCZkZ2fD5XIhKysL9fX1qK2tRWVl5SdahJUZoy/3NitLLc2ZPQcetwepZAovvfQSent78cILL0Cv1+Ov//qvL0lLMFt/iYiIAZiIiM6LJEno7OzE1q1b8fzzz6OhoQHZ2dlYtmwZbrvtNkydOhUmowkYI417siyjr68P5eXlOHnyJEKhELKysjBp0iRkZWXB4XBAq9WOmZbqMwVwi8UCk8kEt9uN9PR0VFVVoaamBp2dneju7sb8+fPh9/vHzPYrk2zl5+fjrrvugslkwsaNG1FVVYUNGzYgIyMDX/jCF5Cbm8sxwURExABMRERjj9KaNjAwgB07duD3v/89qqqqkJaWhuuuuw533HEHSkpKTq3hqxlb25xMJhEKhRAOh5FKpWA0GmGz2WA2W6DV6qDkr7EaxDQaDQRBGLLdZsiyjFAohN7eXsRisQsyKdaF3madTofS0lJYLBYYjUY8++yzaGtrw/r162EwGHDHHXcgPT1dXYKJiIiIAZiIiMZEkFQmjzpy5AhefPFFVFRUwGazYeHChfj85z+PSZMmjblxncq2uN1uzJo1CzqdDvX19WhubkZ/fz8KCwtRVFQEp9OpTio1lrZfKfdkMolgMIjm5macPHkSXV1d0Ov1yM7ORllZGfx+/wVbJ/hCl78oisjJycHNN9+Mrq4u9dh58sknkZ6ejhtuuAFWq/WibDsnwSIiIgZgIiI6J5IkoampCa+++iq2bNkCi8WChQsX4otf/CLKyspGtKbs5aLT6ZCRkQGHw4H8/HxUVlaiubkZhw8fRktLCwoKCtSxtnq9fkws1QT8Zexyc3Mzamtr0dLSAlmWkZ6ejvz8fAQCAdjt9jHdjVgJwfn5+bjvvvsQi8Xw3HPPobq6Gq+//jqKioowY8aMMX38EBERAzAREV0hlDAWiUSwf/9+fPTRRwCAgoIC3HzzzcPCy1juxqrMrpyXlweHwwG/34+6ujq0tbWht7cXHR0dKCwsVJdAGjq78aUuawCIxWJoa2tDbW0t6urqEAwG4XA4UFhYqM4ArYT1sd59WOnCXVhYiJtuugknTpzAgQMHsH//fnz44YcIBAJIS0u74OXN1l8iImIAJiKiUUsmk6isrMRrr72GiooK+P1+rFy5EldffTUcDseYD79Dg5hOp4PX61XX2lVmhq6pqUFbWxtyc3NRUFCAtLQ0mEymS/bdlO7O8XgcHR0daG5uRk1NDXp6emC32zF16lTk5uYiIyMDBoPhsi59dK70ej2mT5+O2267DcFgECdPnsTrr7+OkpISLFu2DGazmScbERExABMR0eWhtKD19vZix44d+OCDD+BwODB//nysXbsW6enp0AgaaDA+JjBSgqwoihBFEX6/Hy6XC7m5uaivr0dVVRWOHj2KxsZG5OTkoKSkBH6/X11i6GIE4aETdfX09KC6uloNvmazGWVlZWogNxqN43bCKGWbHQ4HVq5cid7eXvzhD39AeXk5Nm7cqI7H5oRYRETEAExERJdNMplEdXU1duzYgXA4jOnTp+P6669HUVHRsHVzxyONRgODwYDMzEw4nU54PB5UV1ejvr4ex44dQ19fHwoKCtSxtsr3vRABbeg431AohMbGRtTW1qKpqQkAkJWVhcLCQuTm5sJut4+5ZZrOlSAIyMjIwJIlS7B7925s3boVO3fuxDXXXIOMjAzYbDaedERExABMRESXx8DAAA4fPoxjx45Br9djzpw5WLBgAaxW64T5jhqNBhaLBUVFRfB6vUhPT0d9Qz062jvQ1dWlTpSVkZEBq9UGUTy/VkpJkiDLMiKRCFpaWlBXV4empiYMDg7C5/OhsLAQWVlZ8Hg8auvzRGIwGFBcXIwlS5bg+PHjaGlpwXvvvYfp06ejpKRkQgR9IiJiACYionFElmVIkoS6ujrs2bMHg4OD8Hg8uPrqq5GRkTEux6Ce/v2GBmBZliGKItxuN2w2G7Kzs1FXV4eqqirU19ejra0NWVlZmDx5Mnw+HwwGw6i760qSBACIRqPo7u5GZWUl6uvrMTg4CJvNhpKSEhQUFMDj8QybjVr5U3n9eA6HQ7tCz58/Hx988AHee+897Nu3D8ePH0deXt6ptaSJiIgYgImI6FKGw3gsjmPHjmHfvn1IJpOYM2cOysrKYDQax/X3kyQJiUQCiUQCBoMBWq12WKjU6/Xw+Xyw2WxIT09HTU0N6uvrUVNTg97eXgQCAQQCAXi9XhgMhrPOxKxMcBWLxdDX14eamho0NDSgv78fBoNBDb4+nw9ms/mM3Z2TySTi8Ti0Wu2YW2/5XEKwTqdDbm4uyqaU4dChQzhx4gQ++ugjLFq0CGlpaZBlma3ARETEAExERJdOe0c7jh49it7eXhiNRsyfPx+ZmZnjMpiooT4eR09PD5qbm9Hf34/s7GwEAgEYjcZPBFmz2YycnBx4PB7k5eWhuroatbW1OHDgAOrq6lBcXIzc3Fy43e4zjg8eOsFVX18f6urqUF1djc7OTuj1egQCAUyaNAlpaWmwWCwQBOETwU+WZUSjUbS3t6OlpQUOhwPp6ekXfEzy5eDxeLB06VIcPnRqPWZlAjKPxzPuexgQEREDMBERjTMdHR04evQogsEgiouLEQgEYDKZxmXrnCRJCAaDaG1txcmTJ9Ha2gqdTgedTgefL03tdnt6t2ONRgOz2Yzs7Gw4nU643W5UVFSgq6sL+/fvR0dHB8rKypCWlgaz2fyJ8BqJRNDW1obKyko0NDQgkUio43zz8vLgdDqHtUCfXq6yLCMUCqGhoQGVlZXQaDTIzs5GUVERfD7fsDWLxxuDwYBATgDp6ekwm804duwYamtrMWXKFM4GTUREDMBERHTpJBIJdHZ2or29HVqtFnPnzkVBQcG4m/lZkiREIhG0trbi+PHjaGtrgyAIcDqdyM3NRXFxMex226d2Y1b+XqPRwOFwYMqUKcjKylLHBzc2NqKzsxNZWVkoKSlBWloa9Ho9YrEYuru7UVFRgdraWiQSCTgcDuTl5aGoqAgOh0Md5/tZQU8QBNhsNuTn5SOVSqGhoQFVVVVoaGhAIBDA5MmTkZ6e/olu3OOBRqOBy+XCzJkzsWfPHtTW1qK5uRmDg4MwGo2QATACExERAzAREV10AwMDqK6uRjgchtVqVYPf2QLbWKJM5NXS0oI9e/agubkZRqMR06ZNw6RJk+B2u9XJrEYS1oC/jA92OBzIzMxEXV0damtr1VZlZRKrrq4u1NbWIhQKwWazobCwEMXFxeq44aHh+mwMBgMyszLh9riRnp6Ow4cPo66uDgMDA4jH4zCbzXC73ePyOHM4HCgrK4PX60VNTQ2qqqrQ3t4Ou91+qhs0W4GJiIgBmIiILmZolGUZwWAQVVVV6OjoQFZWFjIyMtQJn8YLZVvNZjNcLhe6u7uh0WgQi8UQDodht9uh1+tH3KV76O8o6we7XC6kpaWhvr4eTU1NOHLkCHQ6HVKplDrBVX5+/rBxvmd6v7PtD2USrUgkAlmWodVqYbFY1LHA47W7sE6ng8vlgsfjgcViwccff4y2tjYUFBSwGzQRETEAExHRpQnBsVgMwWAQ0WgU6enpajfb8Tb+VxRFpKWlYc6cOXA6nWqLbXd3NwKBgLr2r7Le7miCsCiKsFgsKCgogN/vR0ZGBmpqatDf3w+Xy4Xc3FwEAgFYrVaIojiqcpNlGZABSZYQDofR1taGuro61NfXI5VKqWOI8/LyYLPZxu2xptFoYLfbMWnSJBw+fBiNjY3o7e1FMpmEXq/nyUhERAzARER0ccNvMpnE4OCguuxOZmYmvF7vuB1nqtPp1BZYv9+vLkNUXl6O7u5u5OfnIxAI/KXbLUY+s7JGo4FWq1VDXFpaGoLBIGw2G5xO56iXLFJmjlYeQnR2dqKmpgaNjY0YGBiAx+NBbm4ucnNz4fF4oNPpRtSFeyyzWq3IycmB1WpFZ2cngsEgkskkT0YiImIAJiKiiy8ei6Orswv9/f0QRREejwd2u33cdkdVxtparVaYzWb4fD7k5eWhpqYGdXV16OzsRGNjI/Ly8tQgpnS/HWmLsEajgV6vR1paGnw+n/p3I20xV4KvJEmIx+PD1gvu6+uD1WrF9OnTUVhYCLfbrU6gNZ4p5WM2m5Geng6r1Yquri50d3djcHAQdrv9vHocKO9PRETEAExERJ8aGqKxKNo72jEwMACtVqtOFjURvpsgCHA4HLDZbPD5fPD7/aiqqkJ9fT3a29vR2tqqLjFkNpvV1tXRhLChwXk0r1PWC66pqUF9fT06OjpgNBpRUlKCvLw8dbmgoZ8zISolWi3MZrPaTVwJwONxuS0iImIAJiKicUJpLUulUohEIohGoxBF8RPr2473EKz86XA41Nmg6+vrUV9fj5qaGnV8cGFhIVwulzpR1khC57mUk1Lera2tqKysREtLC1KpFLKyslBQUIDs7Oxz6p49Xiit7YlEAolEAqFQCIlE4oIdz0RERAzARET0qaFBkiQkk0mkUimIogij0Tjux5meKahqNBqYzWbk5OTA6/UiJydHHW979OhRNDU1obCwELm5uXA4HOoayBcqgKZSKQwODqKjowNVVVVobm5GPB6Hx+NBXl6e+rmjmaBrvO4LQRCg0+nUdZuTqeR5twCzCzQRETEAExHRiIOwEkAmwnjT07/bpwVhl8uF9PR01NbWorW1FQcPHkRrayuKi4uRnp4Om812XsvzKOWaSCTQ1dWF6upqNDQ0IBgMwmg0oqysDIWFhXA6nTAajZ8YhzxRuwVrtVqYTCZ1DLQssfszERExABMR0SUyNHhJkjThgq8kSZ8IWKIowuFwwGKxICsrC/X19WqX5Pb2dmRnZ6OkpARpaWkwmUwjHh88dGbnRCKB7u5uNDU1oba2Fr29vTCZTCgpKUFhYSF8Ph9MJtMnQu/pLZkTLRxKkqTukwvV24Ctv0RExABMRERnJQgCtFotRFGEJEmIxWLjOgSfHnxD4RD6evsgQ4bH7YHFYhkWurRaLRwOB0pLS9VJsmpra1FdXY3Ozk4UFBQgLy8PXq/3rOODh46rHhgYQEtLC06ePIm2tjZotVrk5OSgoKAAWVlZw7ZDeS+lS3o4HEZvby9EUYTL5RoWwCcCZektQRCg1+shiiInwSIiIgZgIiK6eJSwIQgCDAYDdDodkskkQqHQuA8jytjS7u5uNDQ0oKGxAYJGwOzZs1FYWDgsTCpjR/V6PXw+HywWC9LT/aipqVXHB7e1taGoqAjZ2dlwOBxqYBv6+qGf29nZierqajQ2NiKRSKhLMeXn58Nut6vrBZ+pu3MsFkNdXR2OHj0KQRCQl5eHrKwsuN3uCRGEh7aQC4Kgzr7N8EtERAzARER00en1erhcLlitViSTSfT39yORSIzLEKwE0NbWVtTU1KC5uRnJZBIOhwN+vx9Wq/WM32now4BT6wcXwJ+ejpzGHNTV1aG1tRW7d+9GRkYGCgoKkJGRAZvNBp1Op7baRqNRtLa2oq6uDk1NTYhEIvB6vcjPz1fHG58p+J5pGywWC3w+H5qbm7Fv3z58/PHHyM3NRWFhIdLT06HX68ft8ZZKpZBMJiGKIrRaLbxe74SaeZyIiBiAiYhojBra8ulwOCBJEvr7+xGJRMZVAJYhA/KpANzV1YVDhw6hpqYGRqMRkydPRlFREfx+/1lnuB4WhC1WFBcXw+/3o7GxEdXV1WhubkZnZyeysrJQVFSEzMxMiKKotjRXVVWhu7sbDocDkydPVsOyEnxH+kAiNzcXHo8HXq8XJ06cQFNTE3p6ehAKhWC1WuFyucZdYFRafmOxGPr6+hCNRiFJEjweD0wm07DyJyIiYgAmIqILTqPRQKfTwWq1Qq/XIx6Po6WlBX19fcjOzv7U1sox9z2gATR/+T4Gg0ENupIkQRAEiKKo/t3Zwr3yb8pEWWazGR6PBw0NDaipqUF1dTV6enqQm5sLnU6HlpYWtLa2QqvVori4GLm5ueo4X61Oe2r7RhgSlTIXBEFtXR66r8Z7F+hwOIyWlhaEQiFoNBq1JZ2IiIgBmIiILjpRFGEwGNTJiJqbm9Hc3IxJkyZBFMVx9V0EQYDX68WcOXPgcDhQVVWFyspKdHd3Iz8/H4WFhXC5XCNe41cJogaDAZmZmfB4PMjMzFRbhA8dOgSNRgNRFJGeno7i4mJkZWXBarX+5TNGEX6VrtRtbW3qkkmRSAQZGRkoLCxEYWHhp3bjHg8PWyRJQk9PD44ePYr+/n643W61azgREREDMBERXZJgYrVakZeXB7fbjZ6eHjQ3NyMej6tdU8fTdzEYDOoY3bS0NFRXV6OlpQXl5eXo6upCfn4+srKyYLPZoNVqRxSCFUajETk5OfB6vfB6vaitrUU8HkdmZqb690rwHUnAVoKvLMuIx+Po7u5GTU0NGhoa0NvbC4vZgqlTpyIvLw9+v/8TSyaNJ0rADwaDqKysRF9fH66++mr4/f5hZUZERMQATEREFy0wyrIMp9OJKVOmwOv1oqWlRQ1gdrt93LY22mw2lJSUwO/3o6W1BbU1tWhtbUVnZycyMjKQn5+PzMxMWK3WEa3xq5SVMklVcXEx0tPTkUql1C7kyutHG3z7+/tRV1eH2tpa9PT0QKvVoqiwCMXFxUjzp8FisYyb7uifJRKJoLm5GYODg0gmk5g0aRIyMjIgiiLH/xIREQMwERFdGkajER6PBwaDAeFwGIcOHUJdXR2ys7PHZTgZOoZXmeHa5/WhpqYGNTU1qKurQ0dHB/Ly8lBcXAy32w2j0Tji95VlGaIowul0nvHfPyv0KiRJwsDAAJqamlBXV4eWlhYkk0mkZ6SjIL8A2dnZcLlc6hJBEyEgdnd3Y+/evejs7FS7jdtsNoZfIiJiACYioksbGP1+P6ZNm4b6+nrU1dWhvr4e8+bNg8ViGfffTafTwefzwWq1IjMzU+1mXFFRoQbhgoICOByOEY0PPpfANnSt4MHBQXR2dqKiogJNTU2Ix+NwOp0oKChAbm4uHA4HDAbDhAm+wKnlj5Qu3h0dHZg6dSqKiopG9OCBiIiIAZiIiC5YQJRlGVlZWZg/fz4++ugj9PX14fDhw7jmmmvGfQAeGljNZjNycnLg8/mQl5eHkxUn0dzUjP3796O+vh7FxcUIBALq+OBzDbtnCr/KBFednZ2oqqpCXV0dYrEYXC4XSkpKUFRUBLfbra7xO9FaRYPBII4dO4bW1lZoNBrMmjULxcXFHP9LREQMwEREdOmZzWbk5eUhKysL7e3t2Lt3L2pqapCZmTkhZukdGihNJhNycnLgcrlQn16P6upqtLe3o6enB21tbSgsLITf74fFYlG7IJ9P+E0mkuju6UZtbS2qq6vR29cHo8GA4uJilJSUwOfzqWsUT8TuwLIso7OzE/v27UNNTQ0yMjIwderUT3QhJyIiYgAmIqJLQhAEFBUVYd68eaisrERjYyP279+PqVOnwuv1TphgNnR8sN1ux6RJk5Ceno6amhrU19ejvr4enZ2dCAQCKCwshNfrVSe4GmkZKN2dU6kUent71WWNWlpaoNXpkJebi7y8POTk5MBqtU7oSaBkWcbg4CCOHTuG8vJyyLKMqVOnYtasWeos4xwDTEREDMBERHTJQ2FaWhrmzZuHbdu24ciRI9i5cyfmzp2L+fPnw2w2Q5blCRWENdBAr9fD5/PBbrer44MbGxtx7NgxtLW1IT8/H4FAAG63W20J/7QyUIKvLMsIBoNobW1FZWUlmpqaIMsy/H4/8vLykJeXB7vdPuG7/8qyjFQqhdbWVrz//vsoLy+H3+/H4sWLUVBQMO7WmSYiIgZgIiKaQPR6PcrKyrBgwQJUVlaiuroa27ZtQ3Z2NgoKCiZeS50GEDQCZFmGwWhAVlYWXC4XsrKyUFdXh4aGBhw4cAAtLS0oKChAVlYWHA7HGVtslXG+ygRXykRi4XAYTqdTnWjL5XKNesmk8ayvrw8HDhzArt27AQAlJSVYuHAhXC7XFfH9iYiIAZiIiMZqHtRokJGRgTVr1qCiogK7du3Cpk2b4PV6ce+9907YMZtKa7CgFWC322Gz2ZCRkaG2CLe0tKCzsxOZmZkoKipCRkaGOj5YCb+JRELt6tzU1ISBgQHYbDbMmDEDubm58Hq9MBqM0AiaCdWS/llisRgOHjyI1157DbU1NbDb7bj55psxefLkYQ8BiIiIGICJiOjSh0DNqS7BpaWlWLhwIT766COcPHkS77zzDubPn4+ZM2eqsxRP9LKwWq0oLi6Gx+NBXV0dqqurT01g1duLQCCAoqIidWx0MBhEY2MjKioq0NbWBq1Wi9zcXBQWFiInJwdms/lU2NP85f0nOlmW0d7eji1btmDfvn2Ix+NYvHgxZs2aBbvdfsWUAxERMQATEdEYD39erxerV6/GwYMHsWHDBpw4cQJvvvkmHA4HioqKrpixm3q9Hn6/Hw6HAxkZGairq0NdXZ26nE9ubi50Oh1aWlrQ1taGVCqFnJwcdYKroeN8r6SwJ8syenp6sH37dmzZsgXd3d2YNWsW7rrrLuTn50/Y2a6JiIgBmIiIxmEA1mq1KC0txRe+8AU0NjaiqqoKGzduhMViwd13343MzMwJH4LPtGySz+dDIBBQx/cePHhQ7c7s8XhQWlqK7OxsWK3Ws06YNZHDb39/P7Zt24YXX3wRJ0+ehM/nw4033oilS5fCZrNB0AhqazgREREDMBERXXZGoxFz587F2rVr8fzzz6OtrQ2bNm1CRkYGVq1aBb/fr46BvRKCsCAIMJvNCAQCcLlcSEtLQ1VVFaLRKLKzsxEIBJCWlgaj0ajOBn0lht9wOIyDBw/i5ZdfxrFjx2AymTB//nwsWbIEbrd7WFfwC72flHInIiIGYCIiolGHvoyMDKxduxbB4ABeffU11NbW4uWXX0YqlcLq1auRmZl5xYS8oesHO51OWCwWpKenI5lMwmKxwGw2qw8ErsTuvUrL74EDB/DEE09g9+7dSCaTWLp0Ke6++26UlJRw2SMiImIAJiKisRv4tFotJk2ahC984Q60tbVj8+bNOHbsGMLhMCRJwtq1a+HxeK6o4Kd8R51OB4/Ho4Y/ZRKxKzH4AkAwGMTu3bvxwgsvYOfOnQgGgygrK8O9996LRYsWwWKxQKMRwKG/RETEAExERGOSIAjQ6XQoKyvD17/+dej1emzevBlVVVV49tlnEQwGsWLFChQWFsJkMl1xDwjO9N9XWvhNJpPo6urC+++/jxdeeAGHDx9GPB7HrJkz8bWvfx3Lli07Ne5XuLjhl92fiYiIAZiIiC5I0NPr9Zg9eza0Wi00Gg3effddHD16FJ2dnSgvL8c999yDadOmweVyQRRFzvB7BZAkCeFwGJWVldi6dSs2bNiAgwcPQq/XY968efja176G5cuXq2tH85ggIiIGYCIiGjeUluC77roLJpMJ7777Lurr6zE4OAgAWL58ORYsWICcnBwYDAYW2ASWSqXQ2dmJI0eO4K233sKuXbtQW1sLURQxf/58fPGLX8TixYu53i8RETEAExHR+KOMbzWZTJg3bx78fj/y8vLw7LPPorKyEm+99Rb27duHVatWYcmSJZg8eTKysrJgNBo/MT6YXVXHzz4fur9kWUYikUB3dzcqKyuxa9cubN++HQcPHkQsFoPNZsMdd9yBW2+9FTOmz4DD4eB6v0RExABMRETjlyAIMJlMKC4uhtPpRHp6OjZu3Ijdu3ejqakJL774Ivbs2YNp06ZhypQpWLBgAXJzc2E2m6HX6zkL8DgiyzIkSUIymUQ0GkVHRweOHDmCgwcP4tixYzhw4ABisRhkWcbMmTOxdu1arF27Frm5udDr9VfspGBERMQATEREE4hGo4EoivD7/bjuuutQWFiIKVOmYP369Wiob0BNTQ0qKiqwdetW7N+/H6WlpcjPz0d+fj7S09NhNBqh1WohiqL6w6A0NsKuJElIJBJIJpNqa29TUxOqq6tRU1OD/fv3o6qqCpIkIZVKwev1YtmyZVi7di1mzpyJtLQ0tvoSEREDMBERTUx2mx3Tp09Heno6Jk+ejJ07d2LPnj1obm5GX18fNm/ejJ07d8Lv9yM7Oxt+vx9utxs+nw9utxt2ux1msxk6nY6h6TJKJpMYHBxEOBxGd3c3uru70dXVhc7OTrS2tqGxsQGhUAixWAxGoxFerxezZ8/G1VdfjQULFiAQCMBoNHIfEhERAzAREU1MGo0GMmTodDpkZGRg1apVKCsrw9VXX42DBw9i06ZNSCQS6O3txfHjx1FdXQ1RFKHX62G32+F0OmE2m2EwGKDVatWxpgxRl14qlUI8Hkc0GkVfXx8GBgYQjUbVvxdFER6PB3a7HTNnzsS8efMwc+ZM5OTkwGazsRWfiIgYgImI6MoIwcBfxgYXFBQgKysLc+fOxerVq9HU1IQjR46gpaUFoVAIra2t6OvrQ09PD9rb2yEIAiRJGhZ+OUnW5dmPgiBAlmVoNBpYLBakpaUhLS0NDocDbrcbU6ZMQWlpKbKysuDz+WCxWNjdmYiIGICJiOjKDsMmkwkmkwnp6emIRqNYunQpgsEg2tvbUV1djfb2dnR0dECSJBgMBiSTSSSTSQbfy7jPRFGEVqtVx/Y6nU6kpaUhLy8PWVlZsNvtcDgcsFgs0GpZrSAiIgZgIiKiYa2BgiDAbDbDZDLB6/UiKysLkydPRjweRzweV0NvMplEKpViAL6MlAAsCAJEUYROp4NOp4PJZILRaIQoiupyVkRERAzAREREnxGKtVottFotTCbTsH8busYsXf79dHp3ZnZvJiIiBmAiIqKLFLjo8hv6MEIZE0xERMQATEREdA6hl7iPiIiILiYO2iEiIiIGdyIiYgAmIqKJlAJO/cExtTRR8dgmIqKzYRdoIqKJnnv/3Poly7L6QzQ2EyzUBzXnG4DZ6ktERAzARERXKEmSkEgkkEgkGIBpQtNoNFw6i4iIGICJiK5EsixDkiR0dHTg4MGDMJvNDAY04QNwf38/urq6oNFo2OuBiIgYgImIrpTwm0qloNFoUF5ejpaWFoiieN7vObRr6fkshXMhu6teqCV5lPdRtm0sdKM93+82FpYrOtM2fNp2XYjtjcfj6O7uhiAIDL9ERMQATER0pQXhUCiESCQy+mAnAzKGB4ihAfFM7zWSzzhTKPm0MDT0Mz/xO7Lyx8g/89N+5/TPOuPvyp/8rBG9bqQhEZphY2BH+5Dg9M8fyetHs81n+q6fdgyc/qDk08psNA9FRloeSs8HIiIiBmAioiuQJEnDuoJe7gA87PeUxKc5e+D6tAD8aa8/nwB8ehgdjwFYLR/NuZfLGctbg1EG4FMvPnsA/suHnE8A/rSHLERERAzARERXiKGB4HzCwemv/bT3GulnyH9pxj3rZ37me8rntv2f+lmn0u45lcO5lu9nfeZo3vMTvyuff7l81vud6bUj+bvP+syR7iciIqLR4DrARERERERExABMRERjC1u9iIiIiBiAiYiuSGNhlmKiiYYPmoiIGICJiGiklec//+9ShF5W1InGT6jm+UpEdPlxEiwiogtIkiQkEgmkUqmLWpGOxWJIJpMQBD7HJLoQUqkUotEoBgcHodFoLkrvCq1WC51Ox54bREQMwERE458sy+jt7cWOHTvQ0tICQRDO2uIzdNmb05d4+azXJpNJHDt2DFqt9tOXCCKiEZ23Go0GLS0t2LhxIxwOh3oOjtZnnbeCIGDSpEmYM2cOrFYrz1ciIgZgIqLxXYkGgL6+Prz88suoqKiA2WyGJEkX5fOGVp4v1mcQXSlSkoSWlhY0NzdflG7Kyvm6cuVKFBcXw2q1stCJiBiAiYjGP41GA6vVCp/PB5vNdlHH/XE8IdHFOYcvNGWogsVi4bAFIiIGYCKiiVFplmUZbrcbd999N5qbmxGPxyFJErs6El3hZACiKGJSSQnsdjsLhIiIAZiIaGKEYLvdjkWLFqGzsxP79+9HXV0dotGo2uqjtNqy9ZbO91i7WMfQxXzv8Vom57ItyoOvVCoFvV6P3Nxc+P1+6PV6HsBERAzAREQTJ5hotVq4XC4EAgH09fWhrq4Ovb296k8ikRhWQT5TCzED8l/K5XKWxVjYhpFu04VYHutSLrF1IT/rUu6n089XjUYzbBy+LMvQarWw2WzweDywWCwIBAIIBALw+XzqxHVERMQATEQ0YUKb0WhEaWkpAoFcBIMDaGpqQm1tLerq6tDV1aWG4XA4DEmSIAjCJyrxQyvzZ6rYn/53DM1E5x5mPy2UninwKj+yLKtLnlmsFjgdTjgcDqT505CTnYOCggJkZ2fD6XTCYrHAYDAw/BIRXe5rvyzL1wFYD8AAdTEOIiI6X+oEWPKpZYviiTgGBgbQ1dWF5uZmtLW1obOzE729vQgGg+jv78fAwAAikQhisRhSqRQEQYAoimdcl/T0gDymA7DMOwyN3QB8pj+V80mSJKRSKXU8v16vh9Vqhc1mg91uh9VqhcPhQHpGOvxpfqSlpSErKwsOpwN6nR46nU79PE6ARUR0WWsiMQC3sAWYiOgiVq6VirRWp4VOr4PZbIbP50NJSQlSqRSi0SgGBgbUABwMBhGJRNS/i0QiiEajiEQiGBwcRCwWQywWQyKRQDQaRSKRQDKZVH9SqRRbgolGQBAEaLVaiKIInU4HnU4HvV4PvV4Pg8EAo9F46sdkhNlkhtlshs1mg9VqVQOwEoJtNhssFgu0Wq36viNpXSYiokuPAZiI6BIFYfXCq9WqFWSLxQKPxwPgL624siyrQVf5iUajavBVQq/yp9I6pfwQ0cjOS1EU1V4WoihCq9VCp9NBq9XCYDCcCsQGPYwGoxqIdTqd2ivj9HCrPHxi4CUiYgAmIqKzVIyHBmWz+VSL02eNA2ZLL9HFPT9H24rL4EtExABMREQXqEL+WZVrGafGGhPRuQdeIiJiACYiovFQkYeGk0wRERERnQWnIyQiIiIiIiIGYCIiIiIiIiIGYCIiIiIiIiIGYCIiIiIiIiIGYCIiIiIiIiIGYCIiIiIiIiIGYCIiIiIiIiIGYCIiIiIiIiIGYCIiIiIiImIAJiIiIiIiImIAJiIiIiIiImIAJiIiIiIiImIAJiIiIiIiImIAJiIiIiIiImIAJiIiIiIiImIAJiIiIiIiImIAJiIiIiIiImIAJiIiIiIiIgZgIiIiIiIiIgZgIiIiIiIiIgZgIiIiIiIiIgZgIiIiIiIiIgZgIiIiIiIiIgZgIiIiIiIiIgZgIiIiIiIiIgZgIiIiIiIiIgZgIiIiIiIiYgAmIiIiIiIiYgAmIiIiIiIiYgAmIiIiIiIiYgAmIiIiIiIiYgAmIiIiIiIiYgAmIiIiIiIiYgAmIiIiIiIiYgAmIiIiIiIiYgAmIiIiIiIiBmAiIiIiIiIiBmAiIiIiIiIiBmAiIiIiIiIiBmAiIiIiIiIiBmAiIiIiIiIiBmAiIiIiIiIiBmAiIiIiIiIiBmAiIiIiIiKi4bQsAiIimohkWUYikUBDQwOCwSA0Gs2oXuvz+ZCVlTWq1xERXQiJRAK1tbXo6emBKIqQZfmsr9FoNEgmk8jIyEAgEIAgsJ2LiAGYLksF9Fyx0klE53v9CYVC+MMf/oDt27eP6poiCAJuvfVWPPTQQ9DpdOPymns+19AL9T5ENPpzT6PRIBQK4dlnn8Wf/vSnEQdZg8GARCKB++67D1/96ldhMBh4DhMxANPluJB/VgiWIUMDzSf+W6mA8sJNROdDkiTU1NSgrq4OJpMJkiSd9ZoiiiLC4TA6OzvP6yHe5Qi+yp+pVAqpVAqyLEOSJSTiCSQSCciyjHA4jGg0CqvVCqPRCFmWodVqYTAYIAgCBEGAKIrQaDSfKCtej4ku3bWrtbUVDQ0NsNvtSKVSZ32NyWRCd3c3ent7x821i4gBmCaUVCqFkydPory8fNSvNZlMmD9/Pvx+v/o0lIjoXChBTgl1ZyOKImKx2JivQCrXxlQqhWg0iv7+fjQ3N6OrqwstLS1oamrCwMAABgcHEYlEEI1GIUkSent70d/fj7S0NFitVsiyDL1eD6vVCovFAo/Hg4yMDHg8Hvj9fvj9frhcLhiNRrU1nNdkoktDFEXodLoR1YW0Wi27PRMxANPlFIvFsH79evz4xz+G1Wod0dNL4NS4F4/Hg8ceeww+n++MrRBEROcaGkfyO2M1/A7drmg0ip6eHtTU1KC8vBw7d+5ERUUF2traEA6HP/W1ZrMZRqMRjY2NiMViwx4UDKXX65GTk4Ps7GzMnj0bU6ZMwbRp0+D1emGz2SAIwmW9Np/rPuL9hMbbNev0Hh4X+pwgYgAmuoAX7VQqBbvdDr/fj2g0etbXCIKASCQCg8EAjUbD1l8iotOuq/39/aioqMCHH36I999/Hy0tLRgYGMDAwABEUYTJZILZbB5WGT79v2VZhtVqhc1mO2MwVK6/7e3taGhowJEjR2AwGBAIBFBUXIQVy1dg2rRpyMrKgtFovOTBMhgM4tixY0gkEiP+XFmWIYoi8vLzke738+EqEREDMNHFIUkSEokE4vH4iAKwJEl8iklENEQimUBTUxN279qN1157DUePHsXAwAD0ej1kWYYgCLBYLKfG/ErSiHrcnO06q9FooNPp1M8Ih8M4efIkKisr8damt+D1erF06VIsWbIEs2bNgt/vhyiKlyQM19bW4sEHHzxjS/dnfV+TyYSHH34Yd999N3Q6HQMwEREDMBEREY0FSpgNBoN4//338cwzz+D999+HwWCA2WyGyWQa1jVSkqQL/vlD/9Rq/1JlEAQBPT09eP755/HUU09h5cqV+MLtt+PqRYvgcDig1+svShBWegXFYjF0dHTA6/WOqHcRcGpeit7eXnVyMCIiYgAmIiKiMRJ+I5EIDh48iI0bN2LDhg3o7e2Fy+VCKpVCIpG4LNukSCaTAKB2t35382Z8+OGHuOaaa7B48RIsW7YUOTk56nCWi7U9SlmMpDVbmRmbiIgYgImIiGgMicVi2LBhA37961+jpaUZsgxYLJbLEnw/ixIo7Q4HUqkUNm/ejB07dmD9+tfwwAMP4LrrroPNZuN8DkRExABMREREw0mShM7OTrz66qt49NFHEQqFIIpaSJJ0wbs4X+jtVsYhJ5NJHDt2DN///vdRXl6OW265BSUlJTCbzQzBRETEAExERESnWlOrq6vxyCOPYOPGjdDr9WrX3fFA6ZKs0WggCAKi0Sh+//vfY/369bjttttw7733Ii8vb9hYYiIiokuNq2UTERFdZpIkoaGhAb/61a/w2muvqTMvj9fJmpQuzzabDQMDA3j00Ufx/e9/Hx9++CEikQh3OBERMQATERFdqbq6uvDb3/4WGzduVGd3Hu8zFcuyjEQiAVEUYbPZ8P777+Mf//Ef8dJLLyESiXAmZiIiYgAmIiK60kSjUbz66qv44x//CK1WC41Gc0HDoUajUbslKz9D/07574sZhFOpFIxGI6qrq7F7924MDg5yxxMR0WXBgThERESXSTwex9atW/HYY49Bp9NBkqTzCr9KmNVoNJAkCalUSp08a+i/KYaOL9ZoNNDpdGoAv5Ct0MravS6XC9dccw2sVit3PhERMQATERFdKSRJwuHDh/Ef//Ef6OnpgU6nO+fAKQgCRFHE4OAg4vE4BEGAzWaDxWKB0+mEx+OBVquFzWaDx+MBcKrbdX9/P+LxuPrfiUQCoVBIDa1WqxWCICCZTJ73LNSxWAwrVqzA0qVL1aBNRETEAExERDTBybKMcDiMTZs2oaGhQZ306lyIooj+/n4IgoC0tDQUFBSguLgY+fn5yMnJQU5ODhwOBwRBgE6ng8FgAHCq63UymUQymURHRweam5vR2NiIhoYGNDU1oaamBk1NTWr3ZWVs8miDsEajQTKZhMlkwk033YS0tDSGXyIiYgAmIiK6kgLw8ePH8c4776jdkkcbgJUQGYlEMGfOHFx77bWYP38+AoEAHA4HdDodRFFUxxUP+3zI0OAvf5eXl4dUKoVkMol4PI5wOIy2tjaUl5ejsbERu3btwqFDh6DVamEwGNQQPJJt1mg0CIfD+NKXvoRly5adcXuIiIgYgImIiCaocDiMN954A9XV1bDb7Ugmk6MOv6lUClqtFvfffz8eeOABBAIB6HQ6CIIwLJieKWwODb/K72i1Wmi1WhiNRjgcDmRkZGDatGmQJAltbW3Yt28f1q9fjz179kCSJHUSrc8aKywIAmKxGOx2O2699Va4XC7ufCIiYgAmIiK6knz88cfYvHkzzGbzsImoRkIQBMTjcUydOhV//dd/jaVLl8Jmsw0Lu6NtYT1jSP5zKNZoNMjNzUV2djYWL16MiooKrF+/Hrt370Z7e7saxM/UNVqWZfT39+NLX/oSpk6detFnnCYiImIAJiIiGiOUtXG3bNmClpaWUQdgQRAQiUQwbdo0/Nu//Rtmz54NnU530bZ3aFgVRRFpaWlIS0vDtGnTcOLECWzZsgWvv/46urq6YDQakYgnIENWXzs4OIicnBzcdNNNakgnIiJiACYiIrpCdHZ24q233oLJZBrVhFLK0kZmsxlf/vKXMWvWLGi1l/Y2rgRih8OBhQsXYurUqZg3bx6efPJJ7Nq1S53MS1mCSRRF3HrrrZg9e7a65jAREdHlJLAIiIiILg0ZMmpqatDW1gZRFEc18ZUsy0gmk7jtttuwatWqy7qUkNKV2WqzYtWqVfj5z3+Of/qnf4IoiojH4xBFEYlEAqWlpbj99ts59peIiBiAiYiIrqjwK8uIRWM4cOAAotHoqLo+K0sJ5efn45577oHL5RoTrakaaCCIArKysvCVr3wFv/vd77BixQr1u33uc59DSUmJ+h2IiIguN3aBJiIiukQGBgZw4MABCMLonz+nUinMmzcPubm5YypMKjNKGwwGLFy4EGlpaZAkCYcOHcLy5cthNBq544mIiAGYiC6+kXavZMvM6MvsSig3Hj8XXjAYRHt7+6jX/RUEAQaDAUuXLoXdbh+zZa7ValFUVIR//dd/RUNDAyZNmsRjhOcnr+1ExABMRBf35q5UrlOpFOLxuLpOpyRJkGUZGo0GoiiqFVZlLOHQSvmVUAEYViHSaCBLEpLJJBKJhFpmQ8tDWfd06JqppweZ8VpuQ7+n8r0TiQRSqZR6LCnHjhLIlHIQRVE9nliJ/PTylWUZPT09GBgYGFaWI6mMazQamM1mBAKBMV+ugiCgsLAQBQUF59TSPdqwcqlC0eU8pj/r/JQk6S/X9j9fy5TzUxRFdW3oK+n8PP0+JkkSEokEksnkZ17bBUGAKIqfuLbzWnZu+2Ak5TaaayERAzARDbvRJ5NJhEIhDAwMoKurCwMDA2hvb0dVVRUikYgahgEMqxT5/X4UFRXB4XTA7XbD6/HCYrHAaDRO2DU7lTKLxWKIRCIYGBhAZ2cnent7UV9fj6amJkSj0WEVS0EQoNVqYTAYYLfbkZaWhqysLKSnp8PtdsNsNsNsNqtBcKyX29CKfzKZxODgIEKhMLq6OtHX14dgMIimpiY0NjYilUqplW3lu+l0OhiNRvj9fvj9frhcLjgcDvj9flgsFlgsFnV5HlZuTkmlUmhsbMTAwMCow5ey1u54WUrofK4dsiwjFot96gzZGo1GPRZHO4mYEmri8fioZuBWPlev15/xYc/FPD8TiQQGBwcRDofR0dGBgYEBBINBNDQ0oLWlFYlkYtj3Uc5PvV4Pv9+PzMxMOJ1OuFwu+Hy+CXt+Di2zWCyGcDiMvr4+9PT0oLu7G/X19aivr1cfGijHkPIAz2AwwOVywev1Ijs7G36/Hx6PByaTCSaTadxc28fKvhjt+TX0usEyJgZgIjpjJU6pFHd1daGurg4nT57Eli1b0N3dje7uboRCIYTDYfWpt/KE+/Sbk06nOxXeLGa4nC54PB6UlZVhwYIFKCoqQnZ2Nkwm0yc+e7yWWyKRUB8MHDx4EHv37kV/fz+6u7sRDAYxODioViaH3oiVMtNoNDAYDNBqtTAajfB6vXC73QgEAuqyMDk5ObBarefc+nWxK4gajQbxeBy9vb2ora3FiRMnsGfPHnR0dKgPTwYHB5FMJhEOh4e1fCuUslAqhjqdDjabDWlpabBYLFi0aBHmzJmD3NxceL3ei7pW7XgKwG1tbYjH4xAEYVRdWFOpFFwuF8xm84Qvp66uLqxbtw7hcPgTlWhZliGKIlpaWiAIgvpQbyTHvnI+bt++HT09PaMKM8r144YbbsDkyZMvehCKx+Po6upCfX09Tpw4gY8++gidnZ3o7OxEMBhENBo99eAqMggZ8idCuVJuRqMRWq0Wer0eDocDXq8XNpsNCxcuxLx585Cfnw+32w2tVjsur+9Dz6F4PI7W1lZUVVXh+PHj2LNnD7q6utDb24uBgQHE43GEw2H1Wnb6tR0ATCYTNBoNLBYLvF4vvF4vcnJyMG/ePMyaNUu9HyrnL4PaJ8+RUCiEI0eOoKWlZVTlo+yTnJwcTJs2DQaDgYVKDMBEvLnI6p/xeBwNDQ3Yt28fNm7ciAMHDiAcDqvdUZUn3EoFSLkJDb3hD62UR6NRxGIx9Pf1o76+Hrt27cIzzzyDjIwM3HDDDVi2bBlKS0tht9vH3VNwpavb4OAgampqsH37dvzpT39SW8YNBgMEQVC7xomiOCxknKnMlC7BwWAQkUgETU1NKC8vx2uvvQa/34+FCxfimmuuwaxZs5CRkTFsuZrLUW5KGSSTSfT396Oqqgq7du3Ctm3bUFlZicHBQbU789BWb1EUYbPZzrjtSnlIkoR4PK62pnd1dUGSJHzwwQewWCwoLi7GjTfeiKuuugqFhYVqeV+JJElCV1cXwuEwzGbzqLvfTvSyUyrQbW1teOKJJxCLxRAKhYb929CHODqdDslkclQVbFEUsWvXLuzcufOT56IMQHPmbVKWrMrNzUVJSckFbQVWzs9UKoXe3l5UVlZiz5492LhxI5qbmxGPx9WHUEOv7VqtFhar5YwtZqefn/F4HJFIBB0dHZAkCdu3b4fNZkNxcTHWrl2LxYsXIy8vDwaDYVy0wA39ftFoFFVVVdiyZQveeust1NTUfOJBsXI9s9vtnzgmht5bgVM9YgYGBhAOh9HY2IgDBw6o1/Zly5Zh0aJFmDZtGjIyMqDX68fV/fBi75NQKIT169fj17/+NVpbW0f8WkEQYLfbYbFY8O1vfxtTp07lAwZiACbijeVUBam/vx8nTpzABx98gE2bNqGiokLtlms0GtXfU8YyjbQbkiiKw0KOEprb29vxm9/8Bs888wyuvvpqrFmzBldddRV8Pt9lXYN0pGWWSqXQ19eH8vJybN68Ge+99x7q6+thNBqh1+uHtWwrFVrldSOpTGu12mGfp9Pp0Nvbi1deeQWvvPIKZs2ahUWLFmHlypWYPHkyrFbrJS8DSZIQDAZRVVWFffv2YefOndi3bx+6urpgs9kgiiL0er167Ayt7CsVzJFUXoY+KFAmbEqlUigvL8fevXuRl5eHz33uc1i9ejUmTZoEh8NxRXZ1SyaTSKVSo/reyn7p7OzE4ODgFfGgIBKJqNexz3oYeK5O79FwtrIHgGg0Omzs6IU8PysqKnDgwAF88MEH2L9/P7q7u9XzU2mdPf3aPtJtGXp9V97DaDQimUziwIED2LVrFyZNmoSVK1di5cqVmDZtmjrR2lg9P1OpFLq7u7F//35s27YN27dvR1NT07CeN0r5DL2ejeTafvr1TLnWd3V14fnnn8eTTz6JadOmYe3atVi1ahVyc3NhNpuv6K67kiRhcHAQb731Fn71q1+hr69PrZOM5F4KAHq9HnfffTdWrVrF1l9iACa60oMvcGoMWEVFBZ544gm8++67aGlpgdlsht1uVyvUF+qzTp/QyWw2I5VKYePGjdi8eTMWLlyIW2+9FatWrYLH4xl2AxtLZRaNRrF79248//zz2LlzJzo6OmC32+FwOJBKpUbVcjTaMrNYLBBFEUeOHMHu3buxfv16rFmzBnfddReKi4uHVUgv5gMTJfy//fbbeO+991BTUwNBEGCz2eB2u5FKpS7IsXN6GQxtpdNqtXA4HOjo6MCvf/1rvPHGG1ixYgXuvfdelJWVXfSymDA3a632VC+N/v4rqlJ9oY7PM50fI3V6d9kLda709PTg4MGD2Lx5M7Zu3Yr6+nq1Jczlcl3Q7/9p56fRaITVakVjYyN+/etfY926dbjppptwzz33oLS0dMQPCi7ltT0SiWD37t146aWXsHPnTrS1tcFut8Nms6k9eS5meVksFhw9ehQnTpzAm2++idWrV+OWW25BYWHhJ0LdlVRH2bZtG372s5+hvb0dBoMBiUTirOWgDKNpb2/Hl7/8Zdx///2w2+1s/SUGYKIrPfwGg0Fs3boVjz/+OA4cOACtVguPxzNsUquLuQ3K+GGHw6F2bT1x4gQOHjyIL3/5yygpKRkzN32lYtvR0YG3334bv/vd71BVVQWLxaKWWSKRuOjboARLg8EAs9mM9vZ2PPfcczhx4gQe+tZDmDtvrtr6fKE/WxnfW1lZiRdffBHvvfce2traIEkS3G632sX5YpfD0P0hSRIEQYDT6URPTw/++Mc/4vjx43jooYewePHiK2Jc64WQSCQQCoVYMRzH13SNRoNoNIqPP/4Y69atw5YtW9DR0QFZloeF3ksxC7Zyfsbjceh0Ong8HkQiETz11FM4fPgw/uEf/gHz589Xr1WX+7iTJAktLS3YsGEDnnnmGbS2tkKr1cLr9aqz91+qa7vVaoUoiqiqqkJFRQU+/PBDfOc738GcOXPUHjVX0nl65MgR/OxnP0NLcwvMFvOIe7no9XoEg0GsXr0ad911F8MvMQATsbKbQHl5OZ588km8+eabkGVZ7VJ0KcLLpwVhs9mMwcFBrFu3Dvv27cM3v/lNrFixAh6P57LeuGRZRjgcxs6dO/H73/8eH330kTpr7uUoM6XCJkkStFotBEHA/v378Y1vfAO33nYrvvnNbyInJ+eCjemUZRnRaBQnT57EG2+8gT/96U9qBVEURQiCcFnK4PSyUMYyfvzxx/jOd76Du+++G1/60peQnp4+JirZYzU4Kb0W9u7di5kzZ6qT9dD42YdDg+/bb7+N3t5eAKe6KF+qh1IjOT8NBgOOHz+Ov//7v8e9996Le+65B36//7Jc34e2+m7cuBGPPvooWltbkUgkoNPpLvu1XenBcuTIETz88MO49957cccdd8Dv90/465nyAOXEiRP43ve+h+PHj8Plco24d5Ver0c0GsXChQvxL//yLwgEAgy/xABMdKVWkoBT3Xe3bduG//iP/0BTUxOMRiMSicQ5LStwMW54SqWtsbER/9//9//hpptuwt/8zd+goKDgkt/0le3p7u7Gc889h6eeegp9fX0wmUxjosyGBhiNRgNogBdeeAGdnZ34X//rf6G0tHTYWOJz3SdtbW14/fXX8eKLL6KiogI2mw16vV6tqI21SpPSEvboo4+irq4Of//3f4+CgoIJX/nR6XTqmM5zKbu3334b119/PYqKilhRHCfXdEmS0N7ejldeeQV//OMf0dDQoD7AuFjdvM/3eiqKIoLBIH71q1+hvb0df/3Xf43c3NxLGlCUsuvq6sJLL72E//7v/0YqlYLFYlFD6OWmbIMoiujv78cvfvELHD9+HN/61rdQVlY2prqQX4x9c+zYMfz85z/HwYMH4XQ6R9TtGYD6UHjOnDn453/+Z5SWlnL5I2IAJrpSK0qyLKOrqwuvvfYannzySTQ2NsJms130rs7nIpVKQRAEiKKIZ559Bh0dHfjOd76DyZMnQ6vVXpIbmRIsm5qa8Nhjj+F3v/sdTCYzTCbjZW1N+aztjcfjMBqN2Lx5M3p7e/F3f/d3mDt3rjqb6GjfLxwO49ixY3j88cfx6quvwmg0wuFwXPDvP3S21AtVFolEAiaTCW+++Sai0Sh+9KMfISsra8Ke46IoIhAInNM5rUxeVFlZiTfeeANf+9rX1InEaOxe0wcGBnDkyBE8++yz2LBhA8xms/pAcyyfn0OXgXv00UfR3t6OH/zgB8jJybkkIVjpdXTixAk89dRTeP3112E0Gk8NY4knPjFb91gIwrIsw2q1YtOmTejp6cH3v/99lJWVqftnooXfyspK/PSnP8U777yjzq0x0vAryzLy8vLwj//4j5g6dSrngqBLTmAREI2NGwoADAwM4KmnnsIjjzyCzs5OmEymMRl+h970U6kUnE4ndu/ejR/+8Ic4fPjwJRnDptyEP/74Y/zkJz/Byy+/DIfDAaPRMKZaVM4kHo/DYDDg0KFD+PnPf45Dhw6NelIuZfmPdevW4eGHH1YrIedTuVYmrdLr9dDr9dDpdGqLpfJvyt8pv3O+y8HEYjHYbDZs2bIFTz/9NPr6+iZ0AE5PT1db5kdb4RNFEclkEk888QS2bNlyycaK0rmf52+88Qb+5V/+Be+++y4sllNLFp3rBHzK0k9Dz09liMPFOD+Vhy5erxevv/46nnvuuWHLUl20a/uf3//IkSP44Q9/iNdeew1arRbJZPJUi+sYzUmyLKvXsz179uAnP/kJqqur1XA8keoqvb29ePbZZ7F161Y4HI4Rfz+tVotEIgGPx4OHHnoIs2bNYvglBmCiKzn89vb24oknnsDvfvc7ddKgi9HF60LfaGRZhpSSoNPpUF5ejp/+9Kc4cuTIBZuN89M+M5VKobKyEr/4xS/wzjvvqCFtLHX3/SzJZBKiKOLw4cP4r//6Lxw4cGDUwV1poWlvbx/VskWnv4cgCNBqtUilUujp6UF3dzd6e3sRDAYRCoUQDodhMpkwODiIUCiEgYEB9PX1obu7G6FQSB1jfK7HVjQahclkwnPPPYeXX34Z4XB4wp3nyvJSWVlZcLlc51RWypIukUgE//3f/42tW7dicHBwQlWwP+0YP/3nYr3vBfssGer1qLW19ZyGIyifP/T87OzsRHd3N/r6+hAMBhEOhxGJRGA0GjE4OIhgMHhBz0/lmHO73eqkehdzKS4ZgCxJKC8vx49+9CPs3LlTXe/5YhzjFyN4xWIxGI1G7Nu3D//+7/+OY8eOjbmhKOd635VlGb29vXjhhRfw0ksvqRMYjmTfKPNQ6HQ6PPjgg1i6dCl0Oh0rgXRZsAs00RgIv319ffh//+//4fe//716sz/fm+XpFThJktSWB6Xr8tClPc53fUtlJtH9+/fjBz/4Af7pn/4J8+bNu+BPd5WW34qKCvzkJz/B1q1bYTabz3tZozNVeFOplBouzlRm57uPkskkdDodDh48iP/6r//CT/7zJygqHtnYTkEQoNfrsXLlSnz44Yd46aWXkJaWNuI1jJXKuSRJ0Ov10Gq1yMzMxJIlS5CXlwefz4e0tDS1m61SAY/H42owrq2txYEDB1BeXo7e3l7EYjG1wjzaslEmWXviiSeQk5ODVatWTcjKkcfjQXp6OhoaGs75+BdFEa2trfjbv/1bPPDAA7jpppuQl5c35tfmPpfz40zHs3LsnmvrptL6PtLr3enXyZHS6/VYvHgxpk+fjpMnT474oaZyfipdSkVRhE6vQ3Z2Nq655hpkZ2fD5/PB5/PB4XCo16ZUKoVYLIZQKIRgMIja2lrs3bsXR44cQTgcRjweV7/3aL6HMtwlHA7jxz/+MfR6PVatWnXBh7ooDzaPHzuO73//+9i7dy/sdjtisdh5fc7Q67ry/YeOvT79AcH5XtuV7tt6vR473t+BZDKJH//4xygoKBi3kzwpx0xPTw+ee+45/Pa3v1V7pIx0rV9lffhvfvObuOmmm8bM7OLEAExEl0E0GsWmTZvw2GOPwWazIRKJnFcQFQQBgiBgcHBwWAXKZDKpE08oN+hIJKJWCJV/P59ulfF4HCaTSW3V/MUvfnFBb/rKdnV2duKRRx7Bli1b4HQ6EY1Gz6typAS2cDisVpZ0Op0667YSgJPJpPo7kiTBarWq5Xc+ZWa1WnHgwAE89v8ew/e+9z04nc4Rb7vf78dNN92EzZs3qw8hPq3ypnzXaDQKSZLgcrmQkZGB2bNnY82aNSgpKYHT6YTRaBzR/pIkCcFgED09Pdi0aRPeeOMNVFZWqk/5R1uJlCQJbW1tePbZZzF16lRkZ2dPuMqRw+HAzJkz8dFHH53zuE0lBEejUTzyyCPYvXs3vvjFL+Kqq66C1+s9NbO4Bmor5HgjiiLy8/PR1tYGo9F4xuM4Go0iEomMekIxWZZhMplgMBhGfV2y2+0wGAwje82ffyUrKwtr167FkSNHYDKZEIlEPvX1SkiIxWKQJAkOhwOZmZmYO3curv/cqYnPXE7XiLdBkiTcdddd6O7uxubNm/Hqq6+isbER0WhU7VI80u+fSqWg1WpRWVmJ559/HjNmzLigM7cr19mamhr88pe/xIEDB+BwOBCNRs/5/ZXrXSqVUu91Go0Ger0eBoNh2DjnVCql9qaADJgtZvXvz1U8HofeoMfGDRsxbdo0PPTQQ3A4HOM2/IbDYbz66qv47W9/q5bLSMOv0WhEJBLB/fffj/vuuw92u52VP2IAJrpSxeNxbN26FY8++ihSqZQaTM71hi+KotpCl56ejkmTJqGoqAhOpxPp6enwer3Q6XQIhULo6OhAW1sbOjs7UVNTg5MnTyIcDsNms0EQhHO68Ws0GsRiMVgsFuzYsQO//e1v8d3vfhcul+u8Q/DQcdLPPPMM1q9fD4fDgVgsdl4PC5T31Gg0KCwsRG5uLtLT05Geno60tDTYbDaIoojBwUF0dXWhpaUF7e3t+Pjjj3Hy5Eno9XpYrdZz7uKm0WgQiURgMpmwYcMGFBQU4Etf+pIarkfyHaZNm4apU6di586d8Hq9Z9wO5cFHZ2cnMjMzsXjxYqxevRozZsxAWloaLBbLqLtJCoIAu90Oh8OBBx54ACtWrMC7776Lp59+GrW1tXA6naMqE6VVb9++fXjvvfdw9913n9PkYGOVRqOByWTCvHnz8Pjjj5/XMIehS9bs3bsXVVVVmDdvHu6++26UlZXB4/Gc1+zil6t8ACAQCOB73/veGc9tJfyfPHkS//Zv/waLxaL2PBjJNSSVSuHzn/88Vq1aNewaMNLtKygoGFXLs8FgwKpVq7B+/XocPnwYZrNZbYk9/dqdTCbR29uL7OxsXH311VizZg3KysrU69Bou2Qr56fdbscXv/hFLFq0CFu3bsWTTz6J9vZ2WCyWEc/aqzyssdvt+PDDD/HRRx/hxhtvPO85AIZe25Wutbt274LVaj2vll/l3Orq6oLT6URxcTFycnKQlZWl9m5RQlgkEkFvby+amprQ1NSE2ro6VFdXI5VMwul0ntdDYY1Gg8ysTKxfvx5lZWVYu3btuOypkUql8Pbbb+M3v/kNIpGI+gBhJIxGI8LhMG6//XZ18j4ud0QMwERXIKWLVXl5OR555BE0NjaqM1yey01B6QIXiUSQmZmJr371q1i0aBGKi4vhdDqHrQU7tOurErp7enpQXl6OHTt24J133kEwGFS3Z7Q3fmW9S4/Hg9deew0lJSW466671PV4z/Wmp7zvhg0b8OSTT8JoNJ5Xy6vSAmI2m3Hddddh4cKFmDVrFrxeL8xmM3Q6ndqaPnSfJZNJDA4OorW1FR999BHeffddfPTRRwCgtnqeS5nFYjHo9Xo8+eSTKCkpwTXXXHPW7uPKv2VmZuKGG27Arl271Aqtsg1K9+V4PA6z2Yxvf/vbWL58OaZMmQKHw6GGpPNpZQEAk8mEkpISBAIBzJo1C7/+9a+xdetWWK3WEXe5VFraNRoNfvWrX2HBggUoLS2dUOe+RqPB9OnTMWPGDBw6dOi8Zu9VXqfX6zEwMIDNmzdj+/btyMrKwnXXXaeWn9vtVnt/nL7fxiK73Y758+d/arkorXhKC99Iy1255uXl5WHBggXqOX4ux/toZGVl4fbbb8f+/fthNBqHTWyofIf+/n54PB589atfxTXXXINJkybB6XSq3+98z0+z2YyysjIUFBSgrKwMjz76KA4cOKAOuRnpQxe9Xo/u7m688sormDlzJvLy8i5ImInFYli/fj2efvppGAyG857ILxQKwWaz4Stf+Qrmz5+PKVOmwOPxwGKxqOfCma7t4XAY7e3t2LV7N95+6y3s2LEDJpMJRqPxnIbZpFIp6PV6hEIh/OpXv8KkSZNQVlY2bgKgUjbbt2/Hv//7v6O3txcWi2XED8j1egPC4TBu+NwN+Na3vgWfzzfmrz/EAExEF+mGAgDBYBCvvPIKysvL4XK5zqkbr3ITUZaTufPOO3HbbbehqKgIRqMRoiiesRI5tNJnNpvhcrmQl5eP5cuXY82aNXj22Wexa9cu9XdH20ql3DSNRiOefPJJ5OXlYfny5ec8HlgJUCdOnMDjjz8+LKCfy8MCpTI3ZcoUPPjgg5g7dy4cDoe6fZ8VSPR6PSwWCzweDyZNmoTrr78eBw8exKOPPopjx46pAe5cQ013dzdef/11zJw5Ex6PZ0QVJVEUcfXVV6OwsBBVVVVwu91qC6Hy54oVK3Dvvfdi3rx5MJvNw8bEXahgp7RwLly4EC6XC4lEAtu3b4fNZhtVhdFsNqOlpQWHDh1CSUnJqEPKWA/AXq8Xn//853Hw4EH1785n2IMyaZ4Slpqbm/HII4/AarWqD3ZmzpyJgoICuN1udbjDWA/DZ9quoeV0vg8OLsW6o0ogmz9/Pnw+n9r9WHnYqUyYdMcdd+ALX/gCZs+era4RfDHOT7PZjGuuuQbp6en4wQ9+gK1bt8Ltdo84cEqSBI/Hg61bt2L37t3Izc097549sizj0KFD+MMf/oBYLAatVnvOvWlkWYYGwMqVK/HAAw9gzpw5MJvNo7q2+3y+U9f2NWuwfft2/PGPf8TRo0fP6VxV9rHNZkNNTQ3efPNNZGVlwW63j/kQqAyV2rt3L/7zP/8T7e3t6rEykm0/9UA4hWuuuQbfeuhbyMnJYfAlBmCiK1k8Hse2bduwbt066PX6c3rarYwXk2UZZWVl+Pa3v41ly5Z9YszcSLu3iaIIp9OJa6+9FldddRW2bNmC//t//y/q6urOKwQ3NTXhqaeewqRJkxAIBEb95Hto1+eXXnoJ+/fvH/FkT2cKigCQkZGBr371q7jhhhvg8XhGVPE+0+/odHpkZWUhMzMT8+bNw6uvvoonnngCbW1to+oipkgkEhBFETt27MDu3buxZs2as7ZwKRWyoqIi3HnnnfjFL36htkJbLBbMmDEDd955JxYvXqxWui5m64NyXE6aNAnf+c53EAqFcOjQIXW20JG8XgkJb7zxBlavXn3GfTTeQ7AyedmLL74Il8t13kt3nd7KrnTv3Lx5M9555x34/X4UFBSguLgYU6ZOwbSp05Ceng67ww6L2TKhHjKcS7C+2AKBAG6//Xb8+te/ht/vR09PD+x2O5YuXYo777wTixYtUpdJutgEQcDkyZPx0EMPoaqqCn19fWqPmJEEYIPBgMHBQWzatAmrVq1Sz8/RbrtyvHZ1deGJJ55AS0sLnE7nZ46T/tTK7J97uZSUlOCrX/kKVl97LZxO5yeudyO/tp+adOyee+7BihUrsG7dOjz99NPo7u4eVau5Ut6Dg4PQ6/X44x//iHnz5mHx4sWX5AHM+YZfZTmnEydOwOVyjWjcuCzL6vE0Z84cPPzwwyguLmb4JQZgoiuVciNuamrCk08+qU4+NZqxTko3Ub1ej1gshjvuuAMPPPAACgsLz6u73NCXWK1WXH/99UhLS8N//ud/YseOHUhLSxvVpClKoLNYLNizZw8+/PBDZGZmnvO4xBMnTuBPf/oTnE7nqAO5LMswGAwIBoNYuHAhHnzwQSxcuPCME+yca5n5fD586UtfQkZGOn74wx+htrYWXq93xMFG6aKu1WrR0tKCX/7yl5gxYwZycnJG9HqDwYCVK1diw4YN2L9/PwoKCvC1r30NN954IzIyMobN2HopWr0EQcCMGTPw4IMP4nvf+x56enpG/FAgkUjA5XLh6NGjaGpqmnABWJZluN1u3Hzzzdi+fTuCweCn9tY4V8q5qrS+DwwMYO/evdi3bx8MBgPS09ORmZmJmTNnYtasWSgqKkIgEIBerx8WhmVZBjSABqy8ns/+NplMWLJkCV577TU0NTUhIyMDX//613HbbbfB5/Nd0vHayvk/d+5c/N3f/R1+/vOfIxaLjTjUJZNJmEwmHDhwAG1tbfB6vee8LalUCocOHVLXkw2FQqO6Pikt7JFIBEuWLMFDDz2EmTNnwmAwnNcDj6GvycjIwAMPPAC3242f/exnCIVC6nq2I3nvocOPWlpa8PLLL2PSpEnIyMgYk12hlYdpdXV1eOyxx3Dw4EHYbLYRHR+yLEOv1yMcDqOgoAAPPvggysrKzmuZPCIGYKIJUBEaHBzEtm3bcOjQIdhsNnVW4ZFSunLFYjF8/etfx/3334+0tDSIgogLVUdVxtjNnz8f//t//2/89Kc/xbZt2+BwOEZ801crzwBCoRDWrVuHBQsWjGpW6KEtBBs3bkR7ezs8Hs+oWsyV8BsOh7FixQr8wz/8AyZPnnxBl/AYOs5uzZrrYTKZ8V//9V8oLy//1ImghoZRjUaDcDiMZDIJt9uNNWvWYMGCBcMqcWf7fFmWEQgEsGTJEqSlpeGBBx7AokWLRtX9+EJXsrVaLa666iqsWbMGjz/++KgmtFLG4x05cgSTJ0+ecJNhCYKAOXPmqEMOLBbLBV/ndGirsFarVSffSSaTaG1tRUdHB/bv3w+NRoPi4mLMmzcPkydPRlFREbKysuB2u0+NkxXHx9jhsUyZrG758uVobGzEN7/5TSxYsEAdI3+py1WZQG3NmjWoqKjAH/7wBzidToTD4c/sDaAcPw6HA+FwGBUVFZg0adKor6fKcdnR0YEXXngByWQSiURiVGUxdLzvjTfeiL/9279VJynTnHpqc0HKSelNc9NNN8FiseCXv/wlGhsbP7Ul+PRreygUQiqVUoc+LFiwYMxez5RrRlNTEx599FFs27YNZrN5RA9ylZbfSCQCs9mM73znO1i4cCHX+iUGYKIrPfwCQEVFBV544QWYTKZRL/GgVJwTiQQefvhhPPDAA7Barafe4wLXn5Ru0TNnzsSPf/xj/OxnP8O6devgcDhG1foaj8fh8/mwe/dubNiwAX/1V3814mCndMNSxmF5PJ5RT0Si1+vR29uLVatW4Xvf+x6KioouSndPZT8qs75arVZ8+9vfRn19PdxutzrmT+m2rpShUom77rrrcM0112DmzJnIzs6G1WodVauQ0tr34IMPQhAEuFyuy96tVaPRwOVy4eabb8af/vQn9Pb2qpOXne11SnfwTZs24brrrkNaWtqEuh5oNBo4nU489NBDMBgMeOWVV9RJmi50ED49DA/teqk8UKuoqMC+ffsgiiIsFgtKSkqwcOFCNRDn5ubCbrerlVkG4dFfG1wuF/75n/8ZgiCoPVkud1m63W7ccsstePXVV9Vx5Gc7/pReSP39/Xh/x/tYunTpOfXSiEajePfdd7Fnzx4YjcZRz/qszJy9evVq/N3f/R0KCgouSrdi5T0tFguuv/56mEwmfO9730MoFFJ7IynXdmWCSeW6rtVqsXr1alx33XWYPn06cnJyYDKZxuR5pFwj2tra8Mgjj2DdunXqTOEjuSYpLd0mkwnf/e53sXLlSuh0Os74TAzARFe6aDSK7du3o7KyUp1JcTQ3Bp1Oh1gshttvvx133XWXGn4v5nhOACgoKMDDDz+M2tpa7N+/H16vd9hMpme7qcbjcQiCgNdeew233HILcnNzR3xT7O7uxjvvvIOBgYFhkzuNtIIkSRICgQC+8Y1voLCw8JJ1/503bx6+9a1v4Uc/+pG6hmYwGFQnikpLS0NOTg6uvvpqLFq0CHl5eXC73Wo39tFWGpQHFmMtKGo0GkyePBlLly5VH/yMhLKf6+vr0dDQAJ/PN+EqURqNBjk5Ofibv/kbNDY24v3334dOp7toIfjTAjFwqoXS4/GolfgDBw5g7969MBqNyMvLw7Rp07BixQp1/Ver1cpujaMkCII6C+5Ykp+fjxkzZmDHjh3qWvRn26/JZBIGgwEnjp9Ab28vfD7fqHv2tLW14Y033kA4HB7VcBRZlqHT6RCJRDB79mw8+OCDyM/Pv+jHo9IzavHixbj//vvxk5/8RJ1gKxwOA4A6vCA7OxurV6/G/PnzkZ2dDafLeaqX1jlc2y9l+O3u7saTTz6JdevWqUt2jXStX2VW9W9+85u45ZZb1AfdvEYQAzDRFUq5gXR3d2PPnj1qC+BouhJrtVoMRgaRn5+PO++8Ex6P55LNYipJEgoKCvDNb34T3//+9xGJREY8Dlej0SAej8Pj8aCpqQlHjhxBZmbmWbtFKRM5VVdX4/Dhw7BaraMag6xUkjQaDb785S9jzpw5l7TCrrTqHj16FC+//DKSySQCgQBmzpyJKVOmYN68ecjNzYXb7Va7ww3dtolQaRi6duiiRYvw4osvIplMqq3gZ9t/giCgt7cXdXV1mDlz5rhb13ak0tPT8fd///fo7+/Hnj17YLVaL0kIPr28ld4VGo0GDodDPV+amppQW1uLHTt2IDMzE1OmTMHSpUsxa9YsZGZmjrhHB43N89Nms+H666/He++9N6I1apV7gsViwcDAALq7u9WHuSO9binLAB4+fHjUM/orDwl1Oh3uv/9+TJs27ZxXGDiX8rJYLLj11ltx8OBBvPzyy/B4PCgoLMDUKVMxc+ZMzJkzB1lZWfB4PNDr9Z8IvGMx/AKn5gl4+umn8fTTT0MUxRG3/MqyDLPZjEQigS9/+cu45557/tIzjYgBmOjKlkqlsH//fuzZsweCIIzqhq9U/G12Gx7+24cxderUSxrmlO5cS5Yswec//3n87ne/G/UEUvF4HJIkYd26dZg7d+6IJgCJRCJ49913cfz4cWRkZIy4zJSJOAYHBzFv3jzccMMNI56F+EKVlxJs7rvvPjidTni9XsybNw/5+fmwWq3DKpoTvaKg0WhQWlqKwsJCVFdXw+VyjahiJQgCIpEIjh8/js997nMTNgBrNBqUlZXhhz/8IX7729/i9ddfh9FoPKfZ1y9UhXhoN329Xq+eT9XV1aiursbGjRuRkZGB6667DitXrkRpaSnsdjtbhcchURSRn58PURQxODgIURTPeq1VHuB2dXWhurr6ExNPnS1sRSIR7NmzB6FQaNTzOuj1evT19eH+++/H8uXLL+kYUyUEp6en4xvf+AZ8Ph8KCgowf/58BAIBdejKeHmYqeyPaDSKP/7xj/if//kfiKKo9p4aCaPRiHA4jJtvvhn33Xcf3G43TypiACa60ik3mL6+PmzevBmhUAgulwuxWGxUFZRQKIS/+qu/wooVKy75pBLKTd/tduOee+7Bxx9/jA8++ABWq3VE47aUVmCj0Yjy8nIcP3b8M2c+VYJxT08Pjh49OqqnyUr4TaVSyMvLw3e/+11kZ2df8oqI8llTpkxBcXExdDodtFqt2vp5pYQE5Xvm5uairKwMJ0+eHNVrBUFAT0+PWkGWIU/IGYkFQUBZWRn+9V//FaWlpXj++efR2dmp/tvpXZYvpaHj1ZUfQRDQ3t6Oxx57DOvWrcPy5cuxdu1azJw5E3a7/ZK0yNGFOz8zMzMxY8YM7Nu3b8TL3QBAZ2cnqqurkUgkRhSAlfdsbm7Ghx9+qK6JPNJrolarRWdnJ6ZOnYo777wTTqfzsoRMURQxe/ZsTJ06ddxe25XrSSwWw1tvvYXHHnsM8XgcNpttxA+bdTodotEobrzxRjz00EPw+/1jPvQTAYDAIiC6NJUMZYyfXq9Xu/eONMz19vaitLQUN954I6xW62W5wSifl5eXh6985SvqWM6RTrSktCi1trZixwc7EI1GP/P3U6kUjh07hiNHjkCr1Y6qJUx5In3//fejrKzssq23qIyLslgsw5aXudIqB0oXuUAgoB77Ix0rKIoiotHoXypk8sS9RgiCoLYs/eY3v8HNN98MnU6nji8825rQl2pfSpKEZDIJSZJgNpsxMDCA559/Hv/wD/+A7373u9iwYQP6+/svW2Cn0XM6nSgrK1OPs5GulxuPx9HZ2Tmq3jmSJKGiogInT56E2+0e8coCSo8Ik8mEBx54AJMnT76s98Kh1/bx2psnFovhnXfewQ9+8AO0traOOvz29fVh1qxZ6jhshl8aL9gCTHQJSJKE+vp6dHd3w+v1jmiSEeVGotFokEqlsGjRImRmZl7WG4wy0dKkSZNQXFyMgwcPwul0jng2a2UCqIqKCvT398NqtUKSJQia09YdBRCLxnDw4EF0dnbC4/GM+IGBTqfDwMCAusbpRO02Ox4D3tClfka6PyVJQjgcVluAr4TKlV6vx4wZM+D3+zF16lS89dZb2LVrF6LRKGw2m9o98XIHTGXcsDJmuK+vD6+//jo+/PBD1NTU4Pbbbx/VhHd0+eh0OjgcjlGdY4IgwGKxIBgMqj2BRrKvBwcHcfToUTVojXQ+DEEQEI1GMWXKFCxYsABarXbMHFvj7fiWZRmpVArl5eV47LHH0N3VDavVOqKHEcp9NhwOo6SkBF/72tcYfmncYQsw0UW+yciyjEgkgoMHDyKVSo1q/K8yJquoqAgrV65Ux91ezgCs0WiQnp6O2267Tf1+I20FVrq6lZeXo7q6+lTF57TurMp7tne0Y9euXdDpdNDpdJCkkc9EGY1GsWbNGnXNYbZEXf7zQAlJo2kBBk7NNtvb24tIJHJFPSwQBAEZGRm4++678Ytf/AI//elPcdttt8FkMqmTDiktdZe70qkEYUEQYLVaEQ6H8T//8z/4m7/5G3zwwQeIRCI8B8dBALbb7aN+ncFgQG9vL0Kh0Fmvtcp539TUhLfeegs2m21UQ4GUe8iKFSvUh8GXe6m38Xo9VsLvL3/5Sxw9ehQms2lE3d6V8CtJEvx+P/7jP/4DK1asGPU60EQMwERXQGW2p6cH27dvB3BqMqjRPGEfGBjAqlWrMH369DFzs9fpdFiyZAnmzp2Lnp6eEbeyKl1hOzo61AD8aSG7oaEBe/bsUceIjaTIBEFALBaD1+vFNcuuUSe+4o15bJwHymzXIw1DSgtwf3//FRmiNBoNDAYDsrKycPvtt+M///M/8fvf/x7//M//PKxlVXmgJgjCZZ2ESqlYK8Ho+PHjePjhh/H444+jo6NjTLRa02efn6OddE2j0SCZTI5ofXbl+KitrUVrayvsdvuI1/5VHhzn5+dj+fLlsFgs3GnnQDkHq6qq8KMf/QgffPABzGbziPYfcGoMtlbUwmKx4Ac/+AGuvvrqYV3AicYL9g0kugT6+/vR09OjznY5mu7PRUVFWLNmDaxW66haWy+27OxsXH311di6dStsNpva/e1sFSBBECCKIurr65FIJM7YjU2WZXUCILvdPuIWc61Wi3A4jGuuuQbTpk9j68AogsuFqECfjdJ1V5Ik7ptRlqsoinC5XFiwYAFmz56NO+64A/v378f27dtx9OhRtLe3o7e3V22hMRgMw2ZyvtRSqRR0Oh26urrwi1/8At3d3firv/ordZIcGpvnp9KKO5LrufK+I+1lo9FoMDg4iOPHjyMcDo94TXDlmO7t7cWUKVOQlZXFwHUex1FbWxt++9vfYteuXXA6nYjH4yN6vfJwTW/Q46GHHsKyZcs46zsxABPRmSWTSTQ0NCASicBsNo9ovOzQsazFxcUIBAJjJjAoFR69Xo+pU6eqk5go6x2e7Xsp470aGhoQCoWGVYKUilQsFkNtba0aakeyRIYSrvV6PebOnTvq8WxXWiVIKRdJkhCPxxGPxxEOhzEwMIBwOIxIJPKJBw+iKMJoNEIURZjNZrjdbhgMBjVwnX6MXoj1L9liOLzslJa6QCCA7OxsrFixAs3NzTh69Cj279+PkydPoqWlBU1NTZAkCS6XS20lvtQtsEoIjsfjePzxxyGKIr75zW/C5/PxvDzH81PpDREOh4c93FDuGUajUR1v73K5YDKZoNVqh52fsjKTnIzzukYq19zByOCIQpRGo0E0GsWRI0cgCMKIZ5pWHgYbDAYsW7YMTqdzTD0MHi/HlSzLaGxsxG9+8xts3LgRZrMZ8Xh8xNcEnU4HUeSvwL4AAFFxSURBVBTxjW98A7feeivMZjPPY2IAJqIz33Ti8TgaGxsxODioTgI0kgBsMBjQ39+Pq666Cg6HY0zd8JVtKSgowOTJk/Hxxx+P+EaoVMSPHTuGrq4upKWlfeIGHIvF1Ar8SCdWUQKay+VCWVnZJV8qarxUrJUZfEOhEFpbW9HY2IiTJ0/i8OHDOHHiBKLRKJLJJBKJxCf2i9J6r6wLbbfbUVxcjOLiYhQWFiIQCCArKwsul0utLClLgzDMXvhALIoiHA4HHA4HSkpKcP3116Onpwc1NTXYsWMH9vz/7d13fNXl3T/+19k7OdkJWWRDRIbsjaKAQqto9W7Vqi1Wvb3dWvGu1jpuf49ad22rP+teVVREUUHCkICAsiGDQHbIIjs5e37/wOvjCQQ4J4sAr+fjwcNWSc75jOvzud7X9b7e148/Yu/evXC5XFAqldJ2YoEzwwN9TXw+H1QqFbxeL958800YDAYsWbIEJpOJAcxJ2qfdbkdNTQ1qampQXFyMnTt3oqysDE6nM+j2aTQakZOTg5ycHGRmZiI5ORlxcXGIjIyEWq0+rn329j50e9zweDwnfU6L/2a1WtHa2gqj0RhUZo8I7Lu6umA2m5GTkxPUdkt0vLa2Nrz22mt4//33YTQag057FsGv3W7HtddeiyuvvFLafoqIATAR9fjCdzgcKC8vh8vlCjqVV4x46/V6jBo1SlrLOpQ63wAQGxuLxMRE7N27Fzqd7pTHJ5PJ4PP5EB4ejtraWnR1dfX492w2G2pqaqROVTAUCgW8Xi8iIyMRGxvLznXAfej3+2G329Hc3IyioiIUFhaiqKgI+/fvx+HDhyGXy6HX66V0NnHv9tSZFZ0mt9sNu92O+vp6rFq1Cl6vF0ajEaNHj8bw4cORkpKCzMxMZGVnIS42Luh0R+pdW1QqlTCZTAgLC0NycjKmTp2KtrY2VFVV4eDBg9i9eze2bNmC9vZ2abZOLpdL6/cHcnZYbGfl8Xjw7rvvIiUlBb/4xS+4drCH9llYWIj9+/ejvLwc27dvR319PZRKJbRabYjt82gQ3dDQgFWrVsHn88FgMGDUqFFIT09HSkoKsrOzMWLECERFRQ14UCnura6uLlgsFimgCjYbqrm5GRdddBESExNZVbwXOjo68J///AcfffSR9K4MlkajQUtLC/7rv/4Lt956K2JjY7s9e4gYABNRjy+egoIC6HS6oFO+lEolHA4HdDodkpOTh8T+n8d2usUsdVxcHBwOR9CdZ7F3qMVi6bGyr0wmQ3t7Ow4dOgSlUhl0cRWFQgGn04nw8HBERkYGvYbtbO9YWywWHDx4EN9++y127tyJffv2ob29HQAQHh4Os9ksrcsVnaKg1vNBBsiOXi+j0SjNJP3444/YtGkT/H4/tFotcnNzkZOTgylTpqCiogIGg4EdpwEMhEVgq9PpoNPpMGzYMEyaNAlXXnklmpubUVFRgQMHDmDjxo2orKxEe3s7rFartEXZQAXDIpBpbGzEv/71L6SlpWHs2LHn7BpC0T47Oztx6NAhrF69Grt370ZhYSFaWloAHN2b12w2S1kzobRPQAZZD+1zx44d2Lx5M2QyGbRaLc4//3xkZWVh0qRJqKysDPqZ29tjttlscDgcUj2AU117URFdoVAgbfhwFr/qxXOhq6sLH3zwAV566SW43W5oNJqQawPodDq4XC5mVhEDYCI69ctepHzZ7Xbo9fqfqhmfesRbLpfDarUiKiqqV1tTDNbxKZVKJCcnQ6fThZSqLP5uc3OztDVU4H+z2WzSTHEoe0Ta7XZo1Jpzeu/fwHTj8vJyfPrpp1i5cqWUUq5Wq6V9lcX6wl59DvyA/+fPE51zg8EAo9Eo/bvi4mIUFhZi3bp1UCqV0tpspkMPTjAMHM2OMJlMMBqNSE1NxbRp07Bo0SJUVlZi27ZtKC4uxoEDB1BaWioFTGKrk/4soiWqwBcUFODLL79EVlYWTCbTOds+S0tL8dFHH2H9+vWorq6WgpPo6GipYnJv2yfgh/8U7dPj8WDv3r3Yu3cv1q5dC6VSCZ1OF1TNhd4eu9VqlQZMxbvuZM+CwPdKVHQ0VCoVB9BCON8OhwNbtmzB66+/DrfbDa1WG9LsL3B0SZLRaMTq1asxZ84cLF68WKroT8QAmIhO+AJyOp1QqVRBdyxEADx+/Pghu95JzOgkJCQgLCws6Flq0fHxer2oq6uD0+mETqfr1glyu93w+XxQKpVBdcBFR8rj8SAzK7PHytLnyv3m8/nQ1NSE9evX4+WXX0ZjY6N0rURncqBmeAI72oIYHHG5XHA4HExNP82BsSgmlJycjKSkJIwfPx42mw3V1dXYvXs3du/ejfz8fDQ2NsJkMknbkPXHgIVok1qtFh999BFmzZqFiy666Jxpq6J9NjY2Ii8vD6+88goaGxulGU5RhXmgAtCe2qfIyHA6nbDb7QPWPsV2SU1NTVIKdDBZOmLZjEwmQ0xMjBR4MQg+9b3mcrnwww8/4JlnnkFnZyfUanXQWWg9BcFarRbvvvsuMjIycMEFF7ACNDEAJqITv4ScTifcbrc00h1sMSdRZEqr1Q7pDrVOp4NGowlqdvvYc2O323sMcMW/CyWNWalUQqVSYdiwYefkDLAIbHfs2IEXX3wRW7duhVqtlgYRgt2qpL8FXl8Gv0On3Yp/6vV6GAwGREVFYfTo0bjqqqtw6NAh7Ny5C6tWrUJxcVG3n+vrPSSWTjQ3N+OLL77ApEmTpBnJcyEg2blzp9Q+9Xq9NFh3urarGsz26fP5YLVa4XQ6Q/oscc8FZhrRyQdZfD4fNm3ahBdeeAEVFRVSIbreBqxiQLqgoACvv/46/vKXvyAhIYEnnBgAE1Fwnc5Q/r7YcmYoz5CIYD3YWcXAQKynIldiBsTn8x2taArZz9t2nOR3iqq4oljMudbpsdls2LRpE/72t79hz549UppzqOlugZ3hY0f4e7oPA4NrdkzP3OeSuN4RERGYNGkSLrjgAsybdwk2btyI9evXY+/evejo6IBWq+2XNcJarRb5+fmorq5Gbm7uWT8LbLPZkJeXh7///e8oLS2FyWSC0+ns9e87k9qnP+D72e12aTYx2Pvz2K2h6MScTicUCgU2b96MzZs348CBA0EVqAyG2O7wu+++w4QJE3DddddJdQN4bYgBMBF14/F4Ql5LJ14mYkuLodxx1mq1UKlUcDqdIY3O+3w+tLa2HvdiFgGw6MydKvgN/D4ymeycWyMmsgy++uorvPDCC6ivr0dUVFTIM0pi6xS5TA6f3weHwwGr1dpt0OLY6rMiPVHMIop/LwLv0zWrRf3QOVAqpWrB8+bNQ35+Pj7++GNs27bt6LZsPj98fl+v71lRWXb37t3Iyso6q4vr2O12rFy5Ei+88ALa2tqg0+lCDn6l9vlTJpHYqzvwnPZUHTqwINppa58B655FRlQowbh0bHIGWcG8V3U6HQ4ePCitue+vgQ9R9wMA3n77bVxwwQUYP348Bz6JATARHU+M0oeaHhz4z6EaePn9fnjcnl6lVon0y2N/TnT0Qk11E98n1M7VmR78ulwu5Ofn4/nnn0dTUxO0Wm1Ia3xFlVUAaG1tldYijhgxAueffz6ioqKkPUO1Wq20nZfYBqmurg41NTUoKyuD3W6Hx+OBx+NBWFiYlBrP2eEzkxhQSkpKwlVXXYVx48bhjTfewMqVK+H1e3udjirW7DudTuzYsQPz5s1DTEzMWXkOLRYL1qxZg+effx6dnZ0AEHL7FBWTW1paoFKpIJfLcd555yE3N1fa01epVEprPMUfm80mtc/y8vLj2qdare62H/RAt1GZTAa1Wt3rQUq/j8+QYIkBpaAq+gcMjJyK2+2GwWBAWVkZli1bhvT0dO4JTAyAiei4VwvkckWf1t0M9cDB5XZJhTWCfdmKP0aj8bjiWaKTdKrqoMf+jM/ng8fjgdVq7Zd0r6FOVHDOy8vDX//6VzQ0NEgd4GDPmThvAGAON+N3v/sdxo0bh+TkZJjNZoSHh0uDET11lHw+H5xOp1TpvKWlBYcOHUJlZSU2bNiA+vp6OByObhkNDITPTGq1Gjk5OfjTn/6ECy+8EM899xyqq6tD3lM08P5TKpXYs2cP6urrEBMTc1alQYvBqby8PDzzzDOwWCwh7Wt+bPuMiIjAjTfeiClTpmDYsGEIDw8Pqn2KTA673Y4jR46gsqISBw8dRH5+PhoaGmCz2aRlLKE8c0O91uLaGo3GkJapiMGSwHNBwZ23UN6dAIK6/mKXhujoaHz99dcYM2YMLr/88h4Hs4kYABOdq+GvDFAo5CGv4xWFLKxW64BW7O0Pgal0oXZgT9QJEv9eSoMO4mXu9XqlKqNnewAszkdJSQleeOEFHDp06Oh+oR4vIDv1zwYGLTk5Obj66qsxffp0DB8+/Liq46c69zqdTpoByMzMxOTJk+F0OvH73/8e1dXV2Lx5MzZt2oTS0lJ0dHQM2armdOqOsgjELr30UhiNRjz00ENoamqCXC4POTgR6ZSNjY2oqqzCebnnDeklH6Eem9/vR2FhIV588UW0tbWFNMMql8ulvXLPO+88XHPNNZgxYwaGDRsmrbkMpX1GREQAALKysjB9+nQ4HA7ceuutqKqqQl5eHrZu3YqamhqpfQ7UIJVcLoder4dGowmpToP4u3a7nQNo/XiPKhQKeDwexMfHQ6VSobKyEmq1OqhzLJY8Pf/884iKisJFF13UbTCGiAEw0TlOpHyJrRyCebn4fD54vV5UVlZKL5qh9mKRyWTwer3o6uqCw+EIObARBXfEmqLAcyNG/IMNZMUotlKpRFVV1c8z0vBDhrPzhexwOPDNN9+goKAABoPhaAASxKEqlUo4HA7Ex8dj/vz5uOqqq5CTk3PCojS9ue80Gg0SEhKQkJCA888/H1dddRWKiorw3nvvYd26dUN2b2sKLggGgEmTJuGOO+7As88+i/b29pBn98XMnsViQUNDAzweT9BbqZ0J56m9vR3Lly9HYWEhYmNjg17zq1AoYLPZEBMTgyuvvBKLr7gCmVlZ0Gg0PbbF3rRPrVbbrX0eOXIEe/fuxQcffICtW7fCaDT2+8Cr/6fnutFolILsYAZMAwdBW1tb4Xa7u70zqHfBr0qlQltbGzIzM/HnP/8Zbrcbjz32GJqamoIqmuX1eqFWq9HU1ITly5dj9OjRiI+PPye3HyQGwETUQ8fEYDBAr9ejvr5eGnENJgA2mUyora2Fw+Ho1hEYSlwuF8rLy9Ha2oro6Oigvl9gOmxycnKPgbPYHqSzsxNGozGo2SVRjKmjo+PnfTT9wNkW/4qO448//oi33noLCoVC2uIimEEHr9eL9PR03HfffZg9ezZMJtOADLCI36fX65GamorExEQ0NTXhiy++gMFgkLZ/oTPz2abVarFw4UI0NTXhtddeg8fjCTnzQqFQoLOzE2VlZXC5XGdNdoDP50N+fj6WL1+OuLi4oINfsS46MzMTDzzwAGbPni1tETVQ7dNgMCAtLU1qn9999x0iIiL6be/ngAcX5HI5zGYz9Hq9tDTiVIPC4r3n8/lQX18Pp9N5Tm5z168d/5/29h49ejQeeeQRTJs2DS6XCyUlJXjyySehVKqgUJw8HVrs62wwGLB27VpMnDgR119/PTN86IzBTRmJBrijGB4ejpSUFHR1dQU1SyJmPk0mE+x2O9ra2qSOwFAKwmQyGdxuNw4fPiytHwv2nIi1zUaj8biOnd/vh8lkQlxcHKxWK5QKZdDnTK1Wo7OzE+3t7WdlcCWC39bWVnzyySdoaWmByWQ6ZeAhZtv8fj/S0tLw4IMP4pJLLkFYWNhxW6kM1EBQYLEtOnuebQsXLkRqamqv7iNxPzQ3NcPlcp01M0etra34z3/+A4fDEfQOAAqFAk6nE2PHjsWTTz6Jiy++WKqsPtDtU7TNwXgWiH3jQ8mIElWrq6qqYLPZOMPYBwqFAi0tLUhMTMSTTzyJmTNnQqlUQq/X45e//CUuueQSeL2eoJ7V4ro4nU6899572LVrFwseEgNgInYQjwZ6RqMR2dnZABD0rJcI5hwOB+rr64fsmlaLxYLm5mbodLqgOzIi7dFoNMBgMPT4d8LCwpCRkXG0OIsiuMeU1+uFQqFAa2srGhoaztqCKX6/H/v27cOaNWuC3uJCdGxjY2Px6KOP4pJLLoFWqx30jiQ7rmffMy4pKQkXXHAB7HZ7r1KYZTIZXG7XWdFeRUBQUFCAPXv2IDw8XFrCcqqgxOFwIDU1FUuXLsXUqVOlQoBn070ik8lgMplgMBjgdruDul9kMhlcLhe0Wi0KCwtx+PBhNrw+BL9utxsjR47E4489jkmTJ3Ub+Bg+fDhuuukmxMbGwmq1BnX/ud1uhIWFoaamBq+//joaGhqktkDEAJjoHKZSqRAfHx9SwCFGUa1WK0pLS6U06KHU0fP5fGhsbMThw4dDSmcVMx05OSMQGRnZ48+p1WrEx8eH3AH0er04cuQICgoKfk6DPouIqq5btmxBa2srDAZDULO/er0eVqsV11xzDSZPnnzO7ZVMA0ej0WDKlCnS9lm93RbpbAny7HY7Vq9eDafTCZfLFdTPeL1eWCwWXH311bjgggsGfCb2dJ0bADCZTDAajdKASTDX3uPxIDIyEi0tLSgtLYXT6WSAFWL7UqvVsFgsGDNmDP76179i+ozp3e4zsfvCrFmz8Jvf/AY+ny+ovbllMhkcDgeMRiPWrFmDb775ptuyLSIGwETnIPFSSU9Pl2brQhn1VqvV2LZtG9rb23u95+ZAHZfP58OBAwdw4MCBkLZrEiPOGRkZCA8PP+73iv2BMzMzpXVGwQTCganV+/btk/bcPFtewiLtvLm5GTt37gx6jZ5KpYLNZkNmZiYuvfRSrtEaStcUZ/69KZfLkZqaCqPRGFSH+UTPujO9crtoi62trSgqKoJWq4Xb7T5lICuXy9HZ2YnJkydj/vz5UrGrs3GAyu/3Q6vVIjc3V6pyHUoKdHt7O9asWYOOjg4+PEIMftva2pCQkIClS5di8uTJJ6zYbDKZcMUVV2DGjBlobW0Nuiq03W6HXq/HsmXLsH///nNiK0JiAExEp+jgxMfHw2w2w2KxBDVbKtbXGgwGlJeXo6ysrP+LkvSxo9fe3o5t27ZJ67qCSWEUL1y32y0NCpzo7yUlJUGtVsNmswU9EywqyW7duhV79+49q9KgRbBUXV2N6upqhIWFSevoTkapVMJms2H+/PlITk5mgxxCfF7fGbHX96mIonWBbTwUKpXqrEj3FZX76+rqIJfLT1nwUCaTSTPFCxcuxPDhw3t9Ds+UYEyn02HChAkwGo1Qq9VBD5J4PB5ER0ejuLgYlZWVUhYS4ZTPf5fLhSlTp+CVV17BpEmTThj8ioGXtLQ0/OEPf0BERERQRcfE4LNcLkdpaSmef/55lJeX8+QTA2Cic5WYtTWbzRg7diw6OzuDHlEVadD19fXIy8tDR0fHkJoFLioqwoYNG6DX64PuiMjlcrhcLigUCiQlJUnre3t6GQ8bNgw5OTkhrS30+XwwGAw4cuQINm/eDLvd3i1oP8MjYKnomNh25lTnXQykGI1GjB07lrO/QygQcDqd2L17N6qrq8/pwjGiLsCZHvSJmeyioiK0t7fD6/We8phEYJeZmYnx48ef9ZXRZTIZFAoFUlNTERsbi46ODqhUqqC3BhTb3OXn50vPdjoxhUKBjo4O5Oaeh8cfexwTJkyAXCEP6r6cMmUKbrjhBrhcrqAGWoGj7ye9Xo9169bhyy+/lPZtZio0MQAmOgc7d8DRtKKxY8dKMx3BdvZ8vqOdw7y8PBw8ePC0j3iLl5nFYsH69evR2NiIsLCwkPbrFR2+tLQ0yGXyE6aBxsXFYdy4cVJ6ZDDnzO/3w+PxwGg0Ii8vD9XV1WfVbIrb7UZVVRVaW1uDPt9utxsJCQlITk5mFeYhFAiUlZXhkUcewfPPP48DBw4MmQyP3ghMYe7NIZzpAbC4bk6nU3pOB7slnM/nQ2xsLGJiYs7Ktb89SUpMxLSpU9HR0XHC/cdPdp63bt2KxsbGITUgPNTuR6VSCavVitGjR+Oee+5Gbm7u0RlenDr4BQCj0Yhf/vKXGDduHDo6OoJ+d7jdbkRGRuKLL75AUVERLwYxACY6Vzu6wNEUv5EjR0rVPoPdx9Dn9cJgMKCmpgYbN26U9pM8nS99mUyG8vJyrF69GuHh4XC73SEVwPJ4PMjNzUVycnKPL2SZTAY//DAYDJg5cyZiYmKCqqQqftblcsFgMKCiogJbtmwJqhDNYHaS+8Lr9aKxsRFdXV1Bnw+5XI7w8HBpP9HTee+ws3r0HLhcLnz++efYtWsXVq1ahXvuuQerVq06I4v7+P1+NDQ0wG63/xQE+0P6WZ/Ph7CwsKBnAocyj8eDzs7OkGZyxf7ler3+rA9+xfGFm82YPmMG1Gp1SNuj+Xw+6HQ6bNmyBevXbxgSz/ahNsPp9/uh0WhgsVhw0UUX4W9/+xtmz559wrTnk12nrKws3HzzzUhMTAxpFljM1P/jH/9AXV0dn/3EAJjoXJacnCyNpgZb/MPn90mB44YNG6S1T6fz5drZ2YnvvvsOjY2NQRd6CezA+Hw+jB8/XgrIelyLhKOpciNHjsSIESNC+gwAUiDxxRdfoKKi4rR2Uvx+PxwOB1wul/Q9evtdxAx3qJRK5ZCY/fV4POf8fsB+vx9VVVX44osvYDabIZPJUFJSgqeeegoff/wxGhsb4fF4zpgOo9frRUVFRa8KWXm9Xuj1emRkZAS9HnQo8/l8cLvd0p7bwf6MQqEYEsGvyLQZ6JlVuVyO9PR0hIeHB10XQ5wr8SxbteobVFZWntbgyufzSWu4h0ogrFarYbfbkZqairvvvhtjxowJKfgNvEYqlQrTpk3DggUL0N7eHnQxSlEVesuWLfj888+lgpREDICJzkHx8fG45JJLoFarpYIRwbxMXC4XwsPDsWPHDrz11lunrbqx3++H2+3G2rVr8dprr0nptcG+WMXs78iRIzHjp9H/kx23OGcTJ0yURp+DOWZRWMZsNqO4uBhvvPHGaRuF9vl8sFqt+Oyzz/DKK69g27ZtqK+vh81m6/Zdgv1eYsYs1A6z2+0+rVU5Rep7bW3tkAnGgz3f/f37LBYLli9fjubmZinoUKvVaGxsxKOPPopHH30U+fn56OrqOiOC4I6ODmzbtg1arVYa4Aj2nvB6vTAajUhNTe1VBemhpjdBrCiWdbqXtzgcDtTW1oYUvPelHQwfPhyXX345bDZbSAGa2+2G2WzGxo0b8cYbb5zW92FXVxc+++wzvPnmm9i+fbuUCXE6261KpYLT6cT8+fNx3nnn9XlgJTo6Gv/93/+Niy++GF1dXUEPVDmdTmg0Grz++uvYuHHjGTWoRwyAiagfO0UajQbTp0/H8OHD4XK5gg4CRMEcg8GATz/9FOvXrx/0fYFFpdqysjK88cYbaGpqglKpDDqoEqlrTqcTM2fORFJSUlBbfej1esyYOQPDhg0LetBAnHO32w2tVouvvvoKX3311aCfM/Gyr66uxptvvom//e1vuOuuu3DXXXfhxRdfxObNm9HS0nLcOTzZTIIoIhNKZ8Lv98Nms0np86criGxqasKuXbukdY5DvTMkl8tDSu8P9lyUlpbi66+/7lbFVgxqqFQqfPvtt/jTn/6Ef//736itrR3S58jn86GsrAyFhYXS/w+F1+tFeHg44uLiejVL1dtrMFDBZm/uFblcDpvNBpvt9ARO4jMPHz6MNWvWQK/X9yrLJNT3ocFgwAUXXCDtCx/stRcDsSaTCcuXL8e2bdsGPbgKfB+++uqreP755/HAAw/gvvvuw+uvv45t27ahubn5uPtsML9jsIUjg7lWSUlJuOmmm2AymWC1WoP63eI6tbS0YNmyZUyFJgbAROdyIJyWloaxY8fC6XQGnQYtCqVoNBqoVCq88cYbKCwslNKJB6ODJJPJYLVasWLFCuzbtw+RkZEhfbY41qioKCxYsEBKfz5Vx1AulyMnJwe5ubloamoKeZ2gy+WC3W7HJ598goKCgkErNBS4J+gnn3yCQ4cOQavVorm5Gbt378Zr//9ruPXWW3H//ffjlVdewcaNG1FVVQWbzSZ9xxMFwqHMnor75tChQygsLAy6mFh/ngcRgK9YsQI7duyA2WwO6RqcrtRQjUbTr7M5YvnA8uXLUVlZeVz7F/9brVajqakJL7/8Mh566CF88803qK6uHlJpluL7HjlyBB9++CEa6ht69Szyer3IyMjAsGHDBnzvW3He7HY7Ojs7B2T7KblcHlR19sDvpFAoUFVVhZqa6tO2JZbFYsE333yDqqoq6PV6uN3uQQnQxo0bh4kTJ8Lr9QYdsInMAZ1OB7fbjddffz3kvej74z5qaWnB8uXLUVFRAYVCgbq6OmzfvgMvvvgi/vCHP+Dee+/Fm2++ie+//x7V1dXdnu1nXKAgl2PKlCm44oor4HA4gq4/IQpSbt26FZ9//jmsViuDYGIATHSuBb9+vx8mkwmXXXYZ4uPjIZOFVvHT6/VCLpdj//79eOaZZ1BaWjrgL5PATuOyZcvwj3/8QwrIQ/kdOp0ODQ0NmD17NrKzs0M67tjYWPzmN7/BsGHD4Ha7QxrZ9nq90Gg00t6EYuBgMFL8bDYbPv74Y/zjH/+QOnwKhQJyuRxqjRoulwtr167F448/juuuuw6///3v8cQTT+DDDz/E9u3b0dTUdNysrUKhQFRUFAwGQ9BbaYmtp/bs2TPos+Di3lm+fDleffVVKJXKXm314vF4BjWFWxQmOnz4cL+sXxOB6549e/DFF1+ccBBDzE7KZDKoVCps2rQJS5Yswa233oq3334bZWVlcDgcQ6KQWWdnJ9544w18/vnnUKlVIQfA4pxMmDABMTExg9aRdzqdKCsrC2l/8WAplUoYDAZpHXCw7bOiogI7d+6Ey+Ua1OwIn8+Hrq4uLF++HO+88w6ioqIGZXsh8fxPTk7G9ddfD4PBENK1EEuDtFotfvjhBzz22GMoLi4e8L2BxXWx2Wx4//338cEHH8BkMgXMQPulGe0NGzbg4YcfxjXXXIPf/va3eOqpp6SB2Obm5tOWkdPbaxUWFoYbb7wRs2fPDmkW2OPxQKPR4KWXXsKmTZu4dzMxACY6F4NgpVKJsWPHYsqUKbDbbdBoNEF3dgLTevPy8vDCiy/g8OHDA9ZhCnzZr1ixAk888QSUSiV0Ol1IKXJKpRJOpxPx8fFYvHgxwsLCur1YgzlnkydPxoIFC9Da2hp0BW1BVIXetm0bnnvuOZSVlQ1YEOyHX6ryu2nTJrzzzjvQaDTQarXSZwbO3Ot0OkRFRcFsNqOoqAj//ve/cf/99+O+++7Do48+iu+//77buVaqlEhKSkJERETQ38ntdkOn02HTpk04fPjwoAZKbrcbeXl5eP7552Gz2YLOegj8HSqV6qcUUdugBsAqlQqlpaUoKyvrl3vF4XDgu+++Q319PbRa7Ul/p7hP1Go1IiIisH//fjzyyCN44IEH8Pbbb2PPnj1ob2+X7qnBDogtFgs+//xzvPXWW9Dr9SHPbMnlcvh8PphMJowZMwY6nW7QAmCDwYADBw6grq6u1wHTic65SqVCcnJy0NfE7/dDq9VCr9djzZo1qKqqGtT26XQ68eWXX+LFF1+E2+3uVVAmZvrE8YZyH2g0GkydOhWTJ0+G0+mEWq0O6ec9Hg90Oh3WrVuHl156CTU1NQP+PrTb7Vi9ejVefvllKJXKbuu3/X6/1BZ0Oh0iIyMRHh6O0tJSvPrqq3jwwQdx//3346GHHsKPP/54xswIi+yMzMxMXH/99YiIiJAGa04lcODy3XffRX19fcj3CREDYKIzPAD242ga8JVXXikVfQl1rY7P50NUVBTy1uTh//7v/1BaWtrvAV3gLM/777+P//u//5NGckMpdCMC4La2NixYsABjxowJaa9L8fciIyOxePFipKSkwGq1hjSLKKpSarVabNu2Dc888wx27dolre/szxRXGWTo6urCypUr8fTTT6OhoQE6na7H2UvR+Xa73VLVzOjoaERFRaGjowMrVqxAW1ub1KGTyWRQq9RISUlBRERE0NtSeDwemEwmlJSUYN26dVIq7UB3rn0+HzZu3Ii//e1v0prx3nyuSqVCS0sL2tvbB7XT5PV64XA48PXXX6Ozs7NPny2TyVBaWopVq1bBYDAEPYAkqszqdDqYzWbs2LEDzz//PO6++2788Y9/lIKmnmaF+/O+DryXysrK8MILL+Cf//wnfD5fr9dfWq1WjBo1CiNGjBi0/W9FYFJSUoItW7aE/CwTx+nz+bq1I9FG1Wo1Rp0/CiaTKehiUmIbqL1792L9+vWDkuou2ufmzZvx0ksvwWKxwOv1hpxlIb6jxWKBxWIJuU0AQExMDBYvXgyFQgG1WhPyfeD1eqWiWE8++SSKi4v7PbAMXNLyzjvv4Omnn5bSxHtaViLOr8vlgtPphF6vR3R0NIxGI4qLi7F+/fo+P1NOB7VajRkzZuCqq66Sived6hhEUUqj0YgffvgB7733Hrq6utghJAbAROdaEKxQKDBhwgRce+21IVVVPPblqlAosHbtWixduhTr1q2D1WrtcwqY6Hj5fD5UVlbiueeew7PPPgubzQadThd00CU9YH4qJJSTk4Mrr7wy5PWfgedt9OjRmDdvnrQGKZTvIVLmAGD9+vW44447sHz5clgslj53NsXPe71eVFZW4q9//Sv++Mc/oqKiQqr4HWywIzrknZ2duPDCCzFlypRuFZ/lcjkSEhIQGRkJh8MRdCVxm82GiIgIfPjhh9izZ8+ApoGL+2fLli344x//iNLS0lPOeJ7sdykUCrjdbhQVFQ3qvp+iY7tq1Sps3br1lIGemP0/9n7y+/2wWq1YuXIlysvLe3UufD6ftO7R5/Ph8OHDWLt2Le68807cfPPNePrpp7FixQocPHgQFotF+q799cflcqGyshIfffQR7r33Xrzzzjtoa2uTZnJDHgj8qb1cdNFFiI+P79X1EcsJQnkmiSDV4XDgzTffxL59+7rNoh973Xo6DxUVFfj444/xwQcfSGsaAwf7hqcOR1xcXNDbfYl9W9VqNd577z3s379/wAcBPB4P8vPz8cgjj6ClpQVyubxX9QFE+2xoaEBhYaG0K0Ao97dSqcTEiRMxe/ZsNDc3hdw+xHeQy+X47rvv8NBDD2Ht2rX9/mwvLy/HM888gxdeeAGtra3QaDRB33vi2S6e4XPmzJEKgJ1JfRcAiIiIwNVXX41Ro0ahubk56OrtdrsdCoUC//nPf7B+/fp+LzBIFPI75LHHHssE8GsASgAynhLqL263G1u3bsX27duDriwpClwolUrMnDkTZrMZFosFVqtVGmU+k/6ILR5EECPDzxWh4+Li8MMPP6CmpgYGg6FXo+9KpRK1tbXIz8+Hy+VCfHw89Hp9txdrKJ1Dr9eLlpYWbNu2DS+//DJWrFgBjUYj/fdQiT0Jf/vb32LhwoVQq9Uhd7LEzLladTQdtLCwEA0NDSEXxArsLNlsNmk2NCoqCiaTSUqtDuV8AUdnxdrb27F+/Xq89NJL+PLLL6FWq3u1nYhI+fb7/bjzzjsxYcIE6VqKjqVcLsfOnTuxa9cuhIeHB9VxFT9nsVhQWFiI7Ozsn9ah91/hIRH4tre3Y8OGDXj22WdRUVEBk8nU59lTl8sFm82GjIwMxMbGBr0NlNiDWRT4CfWeUSgUsFgsqKqqQlZWFqKjo0/aaXW73Whvb0dtbS1UKpU0Q7Jnzx48/fTTfd5iRvysKLYkl8ulbYi++eYb7NmzB4cOHUJdXR3a29ulWbljt9k50bkTs952ux02mw0NDQ348ccfsXr1avz73//Ge++9J+0H2tvgQlQ9jouLw1133YXExMSQ2p34e3a7HRs2bJAC8VCqout0OjQ2NuLIkSMwm80IDw/vNhAZmM7rcrnQ2dmJ0tIyfP31V3jllVfw9ttvo76+HlOmTOm2flkEvbt27UJZWZlUKf9UxyZqFRw+fBhtbW3IyclBZGRkv7dPv9+PtrY2fPvtt3j00UfR0dFxdBsmt6fXvT+RBuxwODBy5EhERkYG3T4DK0JHRkZi06ZNcDgcIRUSCwwylUol6urqsHXrVlitVsTHx8NoNHZ7hoY6UNDY2Ij169fjH//4B7766qtuy1l6E0BGRkbirrvuQm5u7knPk0wmg91ux9q1a3Hw4EHpc09FLBmZNGkSpk2bFvJ7LaggODIC4eHh+P777+FyuYLO7hE7GDQ0NGDChAmIiorqt+9GFMr4NoCPlDwPNJSIB7zT6cQrr76CZcuWhbQH7FAaLfX7/TCbzbjhxhswedLkn4Pgnx722dnZuP322/HII49IAUpvthFRqVRob2/Hc889h++++w4XXXQRZs+ejfT0dISFhZ1ylFmsBTty5Ai2b9+Or7/+Glu2bEFra6u01qc3nS2tVgu3241f/vKXuO6662AwGHp9PuUyOXwyH8aMGYPbbrsNjz76KKxWK1QqVa/OmZiJ/9e//oUNGzZg/vz5mDt3LjIyMmAymU75QhZpXfX19diyZQs2btyINWvWwOFwICwsrNcFm5RKJaxWKy699FJceOGFUsAW+H3Cw8Mxf/585OXlSYXRgklDc7vdUKlUKCoqwl/+8hf8+c9/xsSJE/vUQRLfTQSaJSUl+OCDD/DVV1/BarXCYDAcd31EGwj2uolKosXFxXjwwQdx2WWXYerUqZg6dWpQ95RcLoder+/180ilUmH37t14+OGHsXDhQixatAgxMTHSzIfX64XNZkNlZSX27duH7du3o7y8HA8++CAuvvhidHZ24rPPPkNHRweUSmW/FIEJzNSQyWQwGAyQyWTYt28ffvjhB/j9fkRGRiI+Pv7ocyA8DDHRMUhLS4NWq4XRaOxWkEykjLa0tKCiogJNTU1wOBw4fPgwCgoK0NnZCaVSCbPZ3Kfq84GZGLfddhvOO++8Xt97BoMBZrMZJSUlIa2JF+fPZDJhzZo12LlzJ2bNmoWpU6ciJiYGYWFhUrEsi8WCiooKFBcXo6ioCAcOHIBGo4FGo5EGGwKPwe/3IywsTGqfBoMhqC1+xMBveHg41q5di66uLvzxj3/EpEmTehW89dQ+7XY7CgoK8PHHH2P16tXSdTg2QBf/O9j3rVhisX37dvzv//4vpk+fjmnTpmHmzJlBre0W32/y5MlYunQpHn300V5vlebxeKQlEy+99BK+3/w95i+Yj1mzZiEtLU1qJ6fidDpRW1uLLVu2YPXq1fjhhx9gt9thMBh6/T7U6/Vob2/Hr371K0yaNOmM3vdaqVDiwgsvxI033ogXX3xRemee6np5PB5otVrk5+fjk08+wZ133inVBCEa9PuYp4CG3E35U4e8qLAopBfxUDwOv9+P2bNnY/wF449b56ZQKDB9+nQsWLAAn376qTQL3Js1UGK2ac+ePSg5WIKVK1di3LhxmDt3rrRm1Gw2dwuGHQ4Hmpqa0NLSgv3792PdunUoKipCW1sb1Go1zGZzrwI5kWZosViQkZGBG2+8EXFxcb3uxAV2lNRqNebMmYNf//rXeP3116FSqXpVuEV0+g0GAw4ePIiqqiqsXr0aF865EJOnTEZcXBxiY2OltXyB57qtrQ319fXYv38/vvzySxw4cAAWiwVarbZPwa8IyqOiovCLX/xCShc/tnOqVCqRm5uL9PR0FBYWBn2dRLEatVqNAwcO4LHHHsODDz6IadOmSR3VYLflCuR2u1FfX4+8vDwsW7YMJSUlkMvlUorgsVwuF9xud0hBqZjdqampwb/+9S/s378fWVlZQQXACoUCEeaIXs++ij2sS0pKUFpaitWrV2PUqFEYPnw4FAoFmpubUVpaipKSErS1tcHhcKCjowPl5eXw+XxwOBwoKytDV1dXyIFaKPcycLSomqgQ7vV6UVFRgcrKSmlmUnRUT7Tm1uPxwGq1dtunXKPRIDo6utvn9KUN2+12TJw4EXPnzu1VRkjgwIZIl+3t7zCbzXA4HFi5ciW+++476HQ66f0j1sRarVY4nU5pQDMwQCwrK4PT6exWzFClUiE3Nxfh4eHS9wz1mDZv3oyuri48/vjjGD9+vJSFc1wblQHwn7x9Op1ONDQ0YN26dfjggw9QWVkpfdaxKbzi+oiALdgUX6/XC71ej+LiYuzcuRPl5eUYM2YMtDodEOT1UalUmDVrFubOnYvly5cjPDxcSqkOtb0qlUqo1Wrs2r0LBYUF+PTTTzF//nxMmjQJ8fHx0nrcwEDb6/WiubkZtbW1KCkpwTfffIMDBw6gra0NGo2mV1lage/Dzs5O5OTk4De/+U1IhSCH6uC+0WjE/PnzsWrVKpSVlQV9ftxuN8xmM1asWIGpU6di9uzZg1YDgIgBMJ0RdDrdGftQFB2Ijo6Ok75EYmNjceutt8JisWDlypWIjIwMasagp88Tn+n3+1FdXY2amhqsXLkSOp0O0dHRSExMPJoerVTC5XSivb0dFRUVsNvtcLvdUrAifkdvZ3kCZxTvvudujBkzJuTKzSc7Z2azGTfddBNaW1vx2WefSen1vQluROohAFRUVKCqqgrvvPsOtFotEhMTMWzYMBgMBigUCrhcLlitVtTU1KChoQFdXV1SGqqY6exLgKDRaKBUKvHggw9izpw5PabHiXOQkZGBX/3qV9LexqHMlrjdbiiVSpSWluKBBx7A5ZdfjoULFyIzM1NKFzw29TIwJdTr9cLtdqOtrQ2lpaX44YcfsH79ehQXF0OhUEiz1j3N/Pp9fiQlJWHUqFFYu3at1FkNtmKuwWCAw+GA1WoNOuhXKpWIjYvt07pnn88nBVsHDhzAoUOHpDVsIvgRSzdMJpM0uOT1ehEdHY2lS5ciJSUFn3/+uZQWPRDbgRw7O6vT6boFYKJY1rHVo8W1VigUUCqV0uyU+Lv9sQWVmP2Nj4/HTTfdhLS0tD4939VqNWJjY6X9wnsTCIv7T6VSwev1SvsDBwakCoVCGlQQ/02tVsPr9WLXrl1SHYfANpOSkoJFixbhnXfegdlshtVqDTplXyaTSZWD77nnHlx++eVYsGABMjMzpeUt0mf5T9w+W1tbUVZaho35G7FhwwaUl5dDpVJJ5+rY+08skRg7diySkpKQl5cnHWew7yCTySQV9vP5fEAIhQrF+/C2225DU1MTdu7cCbVaHXS14Z4GhUQQX1FRgVdffRVvvfUWtFotEhISkJSUJG2/5HK5YLFYUFJSgo6ODul9IpPJpPdhX7J6PB4PDAYD7rjjjkEt+jbQQXBOTg6WLFmC5557TrrHT/WMFQP2nZ2deOaZZ5CSkoKMjIw+DWQRMQCms8qZvF9cMB1cMROTk5OD++67D9XV1aisrIRarZYqTPb2nIkXrHi519TUoKysTHqxi0BFdIhEJ7mvHXO5XA6lUgm3x40HH3wQ8y6Z12Mab19evHK5HImJibj99tvR0tKCtWvXwmg09jrAOdE5O3ToEAoKCqTOnEgZFYGqCIj6Y2ZMo9GgpaUF9913HxYtWgS9Xn/S86XRaHDJJZfgyy+/xI4dOxAVFRXSd/D5fNJazLfeegvLli3DuHHjMHHiROTk5CA6OhoGg0GqYC22ITpy5Ahqampw8OBBlJSUoKioSJrNFWvUTnT/qFQqKBQKPPDAAzAYDPjuu+9C3ve0N+tONRoNcnNzpUC1LzPB4jjEbP2x975YN+j1elFXVwebzYbIyEhMmDABGRkZSElJweuvv95thnWg9y3t6b442azkQHwfkfLu9/tx/fXXY968edJ57MsAaU5ODjQaTZ/WygbeU4HPwpOdQ/E8KCgoQENDg7SWMXDw8xe/+AW++uoruFyukNe0ivoObW1t+Oc//4kPP/wQEyZMwIQJEzBixAhERERI7dPtdsNms8Fut6O+vh6HDx/GwYMHUVRUhEOHDkkZDCIjo6fvIb5ffHw87r77bng8HmzM3widVhdSdWdxLntzLcSzd9SoUXjyySdx3333SWtfe7tn7rFtVi6Xw+Fw4NChQ1LRrsBnu1qtlt6J/bHFmHgfOhwO3H777Zg3b16/DAYPlSBYp9Nh4cKFqK2txcsvvyzN2p+Ky+WCTqdDQUEB3n//fdx9990wm83s9BIDYKJzReB64IcffhhPPPEEysvLoVarQ9pr90QdEdEBkMlk0tq1YzsI/TG7I4Jq8eemm27CNddcI6XW9ufIrvhd6enpuPPOO9HZ2YmdO3eecLuhvpwznU4npeoGzrL0doDiRMdjt9sxc+ZMXHPNNTAajSftdImAMTU1FVdeeaXUkevNHruisrDX68XatWvx7bffwmw2IzY2FkajEUajEW63G11dXXA4HKirq5Mq3+p0OoSHh0sVTk907mUyGVQqFbq6uvDf//3fmDdvHg4cOCDtDz3Q7UsulyMjIwPh4eFSwaS+3usnO89i/97Kykq0t7dLxYwiIyOxZMkSpKenY9myZdI2PKKy89laEVUEv11dXfjd736HG264oV/W/Yk91ZOSknDkyJFe1VDoLa/Xi7CwMFgsFtTU1EjrgAOfT6NGjcLNN9+MZ599NuRK/+I+E7PBHo8Hq1evxqpVqxATEwOz2QyDwSC1z87OTjgcDlRXV0trVMV/F8/4E50bUQHa4/Hg+uuvx4wZM7B3714o5IpBn5ELfB8++uij+POf/4yKigqoVKo+PXOPfbYr5ArodDopy2wgnu0i+wQA/uu//guLFy+GVqvt9/fh6e67iC0Kt2zZgn379gW1TlpsTRgWFoaVK1di7NixuOyyy/o8KEYU0gAVTwHR6X+RKBQKTJ06FQ8//DBSUlLgcrmC2mMvlA6AGP0P/NNfv1+hUEgzDEuWLMGSJUsGtMKjCGzGjh2L//3f/8VFF10Ep9PZpzWFJzpnYi1gf58zv98vzY5fsfgKPPX/PYWUlJSgZ1BUKhXmzZuHOXPmwG639/p7iArB4eHhiIqKgkwmQ01NDQoKCvDjjz9i165dOHjwIOrr66HVahEdHY3o6Gjo9Xo4nc6TbmcRWNX9N7/5DX7/+9/DYDAgLCxMKmA2GB2ehIQETJo0SdpCayCJVNCysjLU1tZK50Emk8FkMuGyyy7DU089hdtvvx2ZmZlSMbczaUuUUNtpR0cHFi5ciDvvvLNf6gGIn8/IyEB6erpUDG6wiBlaq9WKkpIS2Gy249qAXq/HwoULMXHiRKkAXW8+R8xSms1mREREwOl0orq6ulv7PHToEBoaGhAWFoaYmBhER0dDq9XC5XKddHmIXC6X6gLcfPPNUrHCwKrYpyMIlslkGD9+PB555BGkpaXBarX26/vQ5//5HTgQz3Yx8+vz+fDrX/8at956a79X3R8q7Vu0wxtvvFFqE8G2RY/HgyNHjuCf//wnCgsLuS0SMQAmOheDYKVSienTp+ORRx5BRkYG3G53r2YOBptCoYDX64Xdbsdtt92G3/72t/2+hcfJztkFF1yApUuXYvbs2VJH6UzoZGi1WrS2tmLixIm46867kJmRGfQ5E38vOTkZt9xyC0aMGCGlWvZ2v93AbABRKViv18NgMMBgMEgd0MABgWCCdJfLhblz5+K+++5DXFycVBSmvyoiByMsLAyXXnqpdH4G8v4QadadnZ04cuTIcddNpVIhNTUVt99+O5566ilMnz4d7e3tcLlcUvrl2dBJFinhbe1tuOSSS7B06dKQtzw6VRuIjIyU9lMd7AAYADo7O7F9+3Z0dXX1+PeSk5OxZMkSDBs2DEqlsk9p2qLdyWSy49qn0WiU9hwX2Rinalsi3dvhcGDx4sW45ZZbEBMTI/1+sXZ1MM/rsc/2adOm4bHHHsN5550nFRs7E97lIjX9mmuuwW233Ybk5OSzutCTSqXC7NmzsWjRItjt9pACYKPRiJKSEixfvhxdXV19TjsnYgBMdAZ2GEWV47///e+4+OKLpT32huLskJi59ng8CAsLwxNPPIFbb70VkZGR/dbJDbajlJOTg8cffxw33HCD1AEcqjNqooiNQqHAnXfeiaeffhqpqakhDxiI3zFlyhQ8/PDDSExMlO6Xvnbuj80YEP8u2I6JOEa/34/rrrsODz30kDQDAgAmkwlZWVl9mrkO5TzJ5QpMmjQJM2bMQFtb26B1RGtra3tMqRTFdSZPnoy///3vePPNNzF//nypPYklBWdqlVhxHBqNBnfecSeeffZZZGdn9/ugmFarxaJFi3D++ecPahAsjiEsLAx1dXVobm7uFhgHPptmzZqFP/3pTzCbzdJa0/5un6GsVxXfy+v1wmQy4eGHH8Zdd92FmJgY6fyZTCZkZGSgvb29V/ut9+ezfcqUKfj73/+OX/3qV9J63aH6PgyspXHLLbfgjjvuQHR09Fkd/IrjioqKwpIlSzBt2rSQZ4HDwsLw/vvvY8uWLf2yJIsoqH7KY489lgng1zi6HpjJ99Rv3G43tm7diu3bt0uVes8looLl3LlzMXLkyKA6tOIlGhsbiwkTJkChUKCoqAg2m01aH3O6R0dFx0R0wubOnYvHHnsMc+fOPS1rnESn2mw2Y8KECYiIiJBmZULZ3mcwBjgUCgWcTieioqLw8MMP48Ybb5RmXXpbOEYmkyElJQVRUVHYunUrHA5Hr/ZH7s9j9Hg8SEpKwlNPPSVlBATeF1qtFnV1dcjPz4dWqw362EXKZlxcHC677LIQthXySxV0N2/ePOAps6IdG41GzJo1q8djDPw7WVlZmDFjBsaOHQuXy4XKykqp0rVWq+114a7T8VzweDyw2WzIyMjA0qVLcf311/fpHj/VZ5pMJgDApk2b+rxWtDf3u9vtxpgxY5CZmdnjM16pVCI9PR1RUVHIz8+XCtCdjvYpil1ZLBakpaXh8ccfxxVXXNFteyfg6Ixec3Mz8vPzER4eHvTSAfF8S0tLw/z582E0Gvv0PhD3TFRUFCZMmACDwYA9e/ags7NTyvQZCu1C1L5wuVzIysrCn//8Z1x99dXSee3ts91ut2Pt2rVSMbBgs25sNhsmTZqEadOm9Wmf91CD4MjISGg0Gnz//fdBb+ko2oPL5UJ9fT3GjRuHyMjI05J5QOcML4CPGAATA+AhFAAHvkwMBgNGjhyJ+Ph4NDY24vDhw5DL5actuBEdPplMhq6uLsTExODqq6+WtnYQAfrpGOkWn6nRaJCTk4Pk5GS4XC4cOHBACiJOZ0dJFHzy+XyYPn06/ud//gcLFizot62+FAoFkpKSYDabceDAATQ2Ng76MSuVSmnfzvHjx+Pee+/FnDlzpGM8dr9Rh8OBvLw8OJ3OoGeZehsAB3ak29rasH///gGfRRJ7VF9++eXS/rsno9VqkZKSgrFjxyIhIQEajQZWqxV1dXVS+udQzgTx+/1oa2uDyWSSUt7nzJkjVTQfqOeCQqFATEwMmpubsXfv3hPuPz0Qx+zz+dDQ0ID09HRMmjRJqkjd03ccNmwYtFotioqK0NnZOSjf89j2KQLZadOm4YEHHsDMmTOltGLpGsmOfl+73Y7PPvtMCqCCaZ/9HQAH/qxOp0NmZiYSExPR1dWF6upqeL1eKfX7dA76iCrcc+fOxZ133omZM2f2uQDkmRQABz6fIyIiUFtbi8LCQmi12lMGwqJOhE6nw5EjR+B2uzFu3LiQ9oknYgBMDIDPggA48MWg0+kwYsQITJkyBXFxcaipqUFzc/OgroUSHSOxV6ZcLsdll12G+++/H4sXL0Z8fPyQ6JgHfs/s7GxMnz4dCQkJ0tYgarVa+p4D3RkQ30XMiNpsNpx33nm47bbbcNttt2Hs2LEn7Cz39rNE8D9ixAg0NTWhoqKiW+d2oI5TFHyxWq3IzMzEPffcg5tvvhmjR48+aVXPiMgItLa2YseOHUHfz72fAf65PWVnZ8Nms2Hfvn29KkwUyn3odrtxxRVXSMXFgjmXYWFhGDVqFGbNmoVZs2YhOzsbZrMZlZWV6OrqktZnHvt5g93Ojr32Pp8P1117He677z5ce+21yM7OHrSqrgaDAeeffz7a29tRUFAwIMGlOGaxlrerqwtmsxnXX389fvnLX55wnWfg4NzIkSORm5uL0tJSVFVVHVdhfqACdXGNRowYgXvvvRe33HILRo0a1fOg5U9fJTw8HC0tLSgoKAj6/T0QAXDguddqtcjJycG0adOQkJCAxsZGqTif+IzBeraLQZ+Ojg6MGTMGd999N2655Rbk5ub2y2DwmRYAi9+v1+uRkJCA4uJilJWVSfsonzIi+WnZUkFBAZKSkpCdnX3GLgOhMyMA5jZINCgdpp72VzybiUI4/XHu1Go1srKykJqaipkzZ+Ldd99FXl4eHA6H9FkisOuPAhKBHQmR5ix+/8yZM3HttdfiggsuQERExJBc2yQ6qQkJCfjd736Hiy++GOvWrcP777+Pqqoq6VgC16n2RwdUdHhEMSnxPSIjI3HzzTdj8eLFSElJkYKugUgH1el0mDVrFjIzM7Hiiy/w79deQ2trK9RqtXSt+nK8MpkMMhydJQoskKNQKHDLLbfgqquuQnZ29kk7XdL6SVMYfr/k96itrUV+fr5U8G0gi6AoFAoMHz4c999/P1QqFT755JNu1y7Uzz620+31eqUiW06nE1lZWSEH2aLNR0VFISoqSgrs9uzZg+3bt2PTpk2oqKiQiiKJ5QjHrkEMfBb1x7MAQLd7W6w9jY+Px+LFi7FgwQKMGT0GYeFhg/6sl8vlSEhIwL333guDwYBly5ZJ1zKwMFyo1/bY6+rxeKBUKpGSkoJFixZhzpw5yM7OhtFoPGXAI5PJYDAYMHv2bAwfPhyffvopPvzwQ6nwT7+1z5++g8fjkY5doVDg9ttvxzXXXIPU1NRTtk+/3w+z2Yybb74ZDQ0N2LVrlzQAeqrvNxiFD5OTk3HTTTdh9uzZ+M9//oOVK1fCarV228+5P58lgc8H8T50uVwYPnw4brjhBlx44YVITEwcsKKVofShTuf7WAwMjBs3Dn/4wx9QXFwMj8cTUtaaXC7Hhx9+iNGjR0vbizEIpoHAAJgGnNvthsViGZSCN0MtCO6PWYjA0e9x48YhKysLv/3tb7Fq1Sp8//33KC8vlzpRWq2229qoYIqjBL5cRSfP4XDA7/fDaDRi2LBhGD16NObOnYtp06YhNjZ2SLxsg+kEqNVqZGZmIjk5GTNmzMDGjRuxZs0aVFZWorm5WRp1FrNqwZyzwKBAdFp9Ph/cbre0FVN0dDTS09Nx6aWXYuLEicjIyIBOpxvwCsTiOyUlJeHmJUswZvRorFixAlu2bEFtbS18Pl+3GcSTHav4noH3hsvlkgZejEYjRo4cidmzZ2POnDkYMWKElO4a7HdNT0/HvffeC61Wiw0bNsBut0OlUkn3sPhdgddFBF59CZaGDRuGe+65BykpKfj0009RUVEBp9MJnU4n3QfHBk2Bs57i3LlcLmkvY1GVOCoqCtnZ2Zg3bx4mTJiApKSkXq8BBI7O6MTExODiiy/G9OnTce2116Kmpga7d+/Gtm3b0NjYiPb2dthsNnR0dEjfV61WS1kPgZ9/sv1gA59dYgsecb3FeluDwYDIyEhkZGRg5syZGDduHJKTk4NK8x7oNj9s2DA88MADmDVrFt577z3s378fra2t8Hq9Ugp5T8Fw4Kx24LUVReUMBgPi4uKQm5uLRYsWITs7G4mJiSGtXw8MENLT03HHHXdgwoQJ+OSTT7B7927U1dVJyzX6o32GhYUhNzcXF198MaZOnYqcnBxpxjmYbASZTIYRI0bggQcewCuvvIKNGzfC4XBIFdxP1D6DCZL769k+YsQILF26FL/61a/w/fff49tvv0V1dTXa2tpgt9uhVCqh1Wql6x7s+zDw2e71euF2u+F2u6HRaBAbG4vs7GzMmTMH06ZNQ3p6er9u0XRsH8Lv98PhcKCzszOoAlGiEvjpXPIjl8sxffp0LFq0CG+//TbCwsKC+u5igGPLli1499138eCDDyImJoadaBqYZ4nf758PYAUADZgCTf3I5XJh9erVWL58OWQy2TmXAq1UKqHX63H99ddj4sSJ/ZbOI4Iom82G2tpa/PjjduzatQulpYdQWlqK+vp6qTMrtsc40UyteFlarVbp+oSFhSElJQU5OTkYN24cJk+ejLS0NISFhQ1amtlAdCSAn/cdLCkpQX5+PgoKClBdXY36+nrY7XZpix6j0XjCaq1iFszpdEqDOhqNBjExMUhLS8PUqVMxbdo0ZGRkIDo6uk/bn/RH56mzsxPFxcXIy8vDzp07UVRUhNbWVqkSsegg9nScYvBK7NcbHx+PlJQUZGVlYdKkSZgyZQqSkpJ6PastOsx1dXX48ssvkZeXh/LycrS0tMDpdHbrYOv1ekRGRiIiIgITJ07Evffei2HDhvXp/DidThw6dAjr1q3Dli1bUFxcjLq6Ouk+0Gg00nZNdrtdWuMs2uDw4cMRGRmJ2NhYDBs2DBMmTMCIESOQmJgIs9nc7xkSgZ1aj8eDjo4ONDU1oampCWVlZdi7dy/q6+vR0dGBtrY2NDU1ob29/bhg5djO8bH/Xfy7xMRExMXFSXvLnnfeecjJyUF8fDzi4uJgMpmGXBaIOL7Gxkbs378fa9euxZ49e1BRUYG2tjbpXhbX1u12w+VySccsfn748OHIzMxEeno6Ro8ejfPPPx8pKSkICwvrl2eg+Jz29naUlJQgLy8Pu3fvRmFhIVpaWqQBB/H8PlH7FMXSRPtMTU1FdnY2pkyZgokTJyIxMbFPWSderxfV1dX47LPP8P3336O0tLTH9qlWq6V7QqyFjYqKGvBBP/H5brcbDQ0NKCoqwtatW1FQUICqqio0NDRIgwJarVYqhney4NFms0nF1LRaLWJiYpCRkYGpU6dixowZSEtLQ2Rk5IAtqRHnrLOzEx988AE2b94sDXL8/FEySPnq6H4dvF4vFi5ciCuuuGLAMo6CGfzfuXMn3nrrLXR1dZ3g8/3H/NzP26fFx8fjlltuQVZW1qDcQ3TO8ANwAriCATAN6EPQZrOhs7Pz546WuMVkAbei7PgH/zHP9e7/rYcXRWCn7YTPWBlO/veAk/5sj///mA7jsR1LuVwOs9k8IGt2A4M6u92O1tZWlJaWori4GK2traivr0dFRQWqqqpgsVh6PE9KpRKJiYlISUmROvPp6enIzs5GfHy8FECfruJWA3XOREDT2tqKxsZGHDx4EHV1dWhoaEBZWRlKS0vR0dEh/d3AIEGr1SIuLg5RUVFITU1FYmIioqKikJGRgbS0NMTExHQrbnW6z5vojNjtdhw5cgQFBQUoLy9HeUU5ysvKUVVVhfb29uPamE6nQ1RUFEaMGIHk5GRERkYiNzcXmZmZiIqKgk6n65c1nuKaOBwONDQ0oKqqChUVFWhvb5dmDdRqNSIiIhAXF4fY2FhER0cjLi6uz2t4RRDidDrR1NSEvXv3oqioCOXl5WhubobdbofD4YBSqURUVBQSEhIQGRkJvV4Pk8mE9PR0JCUlITw8XBpMGKwO57Fpzm63G3a7HRaLBTabTVof2dLSArvdLm0P1tLSgqamJunciplrsZZfbDOj0WgwfPhwpKamwmw2Q6fTdcswCQyeh2pb93q96OzsxOHDh1FSUoLy8qP3e0tLC1wulzSrFxERgYSEBJhMJiiVSmmteHZ2NsLCwqR7faCCHfGubGpqQkFBAQ4dOoSqqiqUlJTg8OHD0rMosH2K51BGRgZSUlIQHR0ttU9xj/bX4JuYhRTPx+rqanR0dEiBt0ajgclkQmJiImJiYhATE4PY2Ng+b/nUm/Yg9qRva2tDbW0tSkpKcOTIEem7l5eXo729vdtAkHi2q9VqqZhgWloaEhISEB8fj7S0NKSmpiImJkaa9R+M+97n86GzszPk7Dm/3w+TySSl5p/u9ieyZEIxkH0nYgDMAJjoLBloCEx59nq98Pl8cDqdsFgscDqc8HiPzu66XC54PB4pQBNVpQ0GgzQyLv4EznSdrectMED0er3weDzo6uqCzWaTAgar1Qq32w29Xg+dTicFCWKmWMzQBK7RGornLDD4FzPYXV1dcDgc8Hg88Pl8sNls0Ov1UvEupVIJk8kkHbfYa3Ug7o3A63FsGmVgWuJAnOPAzrPoQDscDqktic6xXq+HUnU0qJDLfr7mpxyEG6zrKzs6yHhsuqfP75MG70SqfiCRLi0G92Tofr4DZ/rOpOfBsW3c4/HA6XTC5XJJ11bsv67T6Y7eWzIZ5Mcc+2DNYor26fF44HK5pOBBPIscDoeUsSG+97HP7oFunz3tO3xs+xwK94j4fuI6u91udHV1SYNBHo8HFosFXq8XBoNB2m5MrVZDpVLBZDJBpVJJz8IzNfvpTO7TEDEAJuKDNaROSm9e1D2lRZ4r90RfjrmvP38mHO9gHWOw69YG6jsEE8SebD3mULzGoXzP3v7c2fDsHyrXdSi3z2Db6FC5X/rz2T5UjuvYjLOesuLOtDZ77HEwAKbBCIBZBIvOKWf7Q7U/9lvkPXF2n7e+FGQ629tnKPt0n4339Nn8DAim8BPb59l1j5yNz/ZTLT84E9vwibYOIxpIcp4CIiIiIiIiYgBMRERERERExACYiIiIiIiIiAEwEREREREREQNgIiIiIiIiIgbARERERERERAyAiYiIiIiIiBgAExERERERETEAJiIiIiIiIgbARERERERERAyAiYiIiIiIiBgAExERERERETEAJiIiIiIiImIATERERERERMQAmIiIiIiIiIgBMBEREREREREDYCIiIiIiIiIGwERERERERMQAmIiIiIiIiIgBMBEREREREREDYCIiIiIiIiIGwEREREREREQMgImIiIiIiIgYABMRERERERExACYiIiIiIiJiAExERERERETEAJiIiIiIiIgYABMRERERERExACYiIiIiIiJiAExERERERETEAJiIiIiIiIiIATARERERERERA2AiIiIiIiIiBsBEREREREREDICJiIiIiIiIGAATERERERERA2AiIiIiIiIiBsBEREREREREDICJiIiIiIiIGAATERERERERMQAmIiIiIiIiYgBMRERERERExACYiIiIiIiIiAEwEREREREREQNgIiIiIiIiYgBMRERERERExACYiIiIiIiIiAEwEREREREREQNgIiIiIiIiIgbARERERERERAyAiYiIiIiIiBgAExERERERETEAJiIiIiIiImIATERERERERAyAiYiIiIiIiBgAExERERERETEAJiIiIiIiImIATERERERERMQAmIiIiIiIiIgBMBEREREREREDYCIiIiIiIiIGwEREREREREQMgImIiIiIiIgBMBEREREREREDYCIiIiIiIiIGwEREREREREQMgImIiIiIiIgYABMRERERERExACYiIiIiIiJiAExERERERETEAJiIiIiIiIiIATARERERERExACYiIiIiIiJiAExERERERETEAJiIiIiIiIiIATARERERERERA2AiIiIiIiIiBsBEREREREREDICJiIiIiIiIGAATERERERERMQAmIiIiIiIiBsBEREREREREDICJiIiIiIiIGAATERERERERMQAmIiIiIiIiYgBMRERERERExACYiIiIiIiIiAEwEREREREREQNgIiIiIiIiYgBMRERERERExACYiIiIiIiIiAEwEREREREREQNgIiIiIiIiIgbARERERERERAyAiYiIiIiIiBgAExERERERETEAJiIiIiIiImIATEREREREROc05U//lP30Tz9PCREREREREZ1lZCIA9gKwAnDznBAREREREdFZyAXAK/P7/REARoHp0ERERERERHR28gEo+H+6Bij+9JrBcAAAAABJRU5ErkJggg==;fillColor=#FFFFFF;imageBorder=#000000;" vertex="1" parent="1">
                    <mxGeometry x="354" y="181" width="100" height="63" as="geometry"/>
                </mxCell>
                <mxCell id="7" value="S3" style="sketch=0;pointerEvents=1;shadow=0;dashed=0;html=1;strokeColor=none;fillColor=#DF8C42;labelPosition=center;verticalLabelPosition=bottom;verticalAlign=top;align=center;outlineConnect=0;shape=mxgraph.veeam2.aws_s3;fontColor=#000000;" vertex="1" parent="1">
                    <mxGeometry x="383" y="255" width="42" height="44" as="geometry"/>
                </mxCell>
            </root>
        </mxGraphModel>
    </diagram>
</mxfile>